<svg width="166" height="166" viewBox="0 0 166 166" fill="none" xmlns="http://www.w3.org/2000/svg">
<g clip-path="url(#clip0_14_760)">
<path d="M165.995 166H0.000244141V0H165.995V166Z" fill="black"/>
<path d="M0.00500488 33.9685L2.69384 31.9433L0.00500488 28.376V33.9685Z" fill="#515054"/>
<mask id="mask0_14_760" style="mask-type:luminance" maskUnits="userSpaceOnUse" x="0" y="0" width="166" height="166">
<path d="M0.00488281 166H166V0.0243988H0.00488281V166Z" fill="white"/>
</mask>
<g mask="url(#mask0_14_760)">
<path d="M7.05787 15.7081C8.27296 14.7907 8.64872 14.166 7.44826 12.5702C6.42348 11.2136 5.86229 11.1697 4.44223 12.2335L7.05787 15.7081ZM9.63934 26.7126L-1.15503 12.3897L3.09538 9.18348C6.15508 6.8801 8.5316 6.71417 11.0448 10.0424C13.5384 13.3559 13.187 15.2787 9.72718 17.8846L9.07327 18.3775L13.2798 23.9603L9.63934 26.7126Z" fill="#515054"/>
<path d="M19.6666 19.1514L8.87219 4.83328L17.0607 -1.33999L19.2859 1.61244L14.8794 4.93576L16.7093 7.37091L20.3546 4.62344L22.6726 7.69299L19.0273 10.4453L21.1305 13.2367L25.7665 9.74262L28.0795 12.8122L19.6666 19.1514Z" fill="#515054"/>
<path d="M30.1511 5.18409C30.7952 6.04298 31.4589 6.07714 32.0445 5.63794C32.6301 5.19873 32.7765 4.54968 32.1323 3.69079L31.0636 2.27558L30.1169 2.98807L28.1064 0.313794L32.8302 -3.24377L38.8276 4.71561L36.8903 6.16986L35.7776 5.82338C35.5044 7.09219 34.8895 8.05844 33.7671 8.90757C30.0096 11.7331 27.9649 10.5229 23.7145 4.87665C19.6398 -0.530455 19.4446 -3.50729 23.085 -6.25476C25.1101 -7.77734 27.5013 -8.39223 29.5069 -7.08925C30.1316 -6.68421 30.7416 -6.01564 31.6151 -4.85907L27.8331 -2.01399L27.1987 -2.84848C26.5546 -3.70737 25.8958 -3.73665 25.3102 -3.29745C24.7246 -2.85824 24.5734 -2.21407 25.2224 -1.36006L30.1511 5.18409Z" fill="#515054"/>
<path d="M41.025 3.05737L30.2306 -11.2656L34.0125 -14.1107L44.802 0.2123L41.025 3.05737Z" fill="#515054"/>
<path d="M0.58643 50.9308C1.80153 50.0133 2.17728 49.3887 0.976823 47.7929C-0.0479593 46.4362 -0.609149 46.3923 -2.0292 47.4562L0.58643 50.9308ZM3.1679 61.9353L-7.62646 47.6123L-3.37606 44.4061C-0.316355 42.0979 2.06016 41.9368 4.57332 45.265C7.06695 48.5786 6.7156 50.5013 3.25086 53.1073L2.60183 53.6002L6.80832 59.1878L3.1679 61.9353Z" fill="#515054"/>
</g>
<path d="M13.1949 54.3735L2.40051 40.0554L10.589 33.8822L12.8142 36.8346L8.40769 40.1579L10.2425 42.5931L13.8878 39.8456L16.2009 42.9152L12.5556 45.6675L14.6589 48.4589L19.2899 44.9648L21.603 48.0343L13.1949 54.3735Z" fill="#515054"/>
<mask id="mask1_14_760" style="mask-type:luminance" maskUnits="userSpaceOnUse" x="0" y="0" width="167" height="166">
<path d="M0 166H166.015V0.0243988H0V166Z" fill="white"/>
</mask>
<g mask="url(#mask1_14_760)">
<path d="M23.6798 40.407C24.3288 41.261 24.9876 41.3 25.5732 40.8608C26.1588 40.4216 26.3052 39.7726 25.661 38.9137L24.5923 37.4985L23.6456 38.211L21.6351 35.5367L26.3589 31.9791L32.3563 39.9385L30.4189 41.3928L29.3063 41.0463C29.033 42.3151 28.4182 43.2813 27.2958 44.1305C23.5383 46.956 21.4936 45.7458 17.2432 40.0995C13.1684 34.6924 12.9733 31.7156 16.6137 28.9681C18.6388 27.4456 21.03 26.8307 23.0356 28.1336C23.6603 28.5387 24.2703 29.2073 25.1438 30.3638L21.3618 33.2089L20.7274 32.3744C20.0833 31.5155 19.4245 31.4814 18.8389 31.9206C18.2582 32.3647 18.102 33.0088 18.7511 33.8628L23.6798 40.407Z" fill="#515054"/>
<path d="M34.5538 38.2803L23.7594 23.9573L27.5413 21.1074L38.3308 35.4352L34.5538 38.2803Z" fill="#515054"/>
<path d="M42.6979 19.1969C43.913 18.2843 44.2887 17.6548 43.0834 16.059C42.0635 14.7024 41.5023 14.6584 40.0822 15.7223L42.6979 19.1969ZM45.2745 30.2014L34.485 15.8785L38.7354 12.6723C41.7951 10.3689 44.1716 10.2029 46.6848 13.536C49.1784 16.8447 48.8271 18.7674 45.3623 21.3783L44.7133 21.8663L48.9198 27.4491L45.2745 30.2014Z" fill="#515054"/>
</g>
<path d="M55.3032 22.6431L44.5137 8.3201L52.6973 2.15171L54.9225 5.10414L50.516 8.42746L52.3508 10.8577L55.9961 8.11514L58.3092 11.1847L54.6639 13.9322L56.7671 16.7236L61.4031 13.2294L63.7161 16.3039L55.3032 22.6431Z" fill="#515054"/>
<mask id="mask2_14_760" style="mask-type:luminance" maskUnits="userSpaceOnUse" x="0" y="0" width="166" height="166">
<path d="M0.00488281 166H166V0.0243988H0.00488281V166Z" fill="white"/>
</mask>
<g mask="url(#mask2_14_760)">
<path d="M65.7912 8.67172C66.4402 9.53061 67.099 9.56477 67.6797 9.12556C68.2702 8.68636 68.4166 8.03731 67.7724 7.17842L66.7037 5.7632L65.757 6.47569L63.7465 3.8063L68.4703 0.243858L74.4628 8.20323L72.5304 9.66237L71.4177 9.311C71.1445 10.5798 70.5296 11.5461 69.4023 12.3952C65.6497 15.2256 63.605 14.0105 59.3546 8.36915C55.2799 2.95717 55.0798 -0.0196648 58.7251 -2.76226C60.7503 -4.28971 63.1414 -4.9046 65.1471 -3.60163C65.7717 -3.19658 66.3768 -2.52802 67.2503 -1.37144L63.4732 1.47851L62.8389 0.639143C62.1947 -0.219747 61.5359 -0.249027 60.9503 0.190178C60.3647 0.629383 60.2135 1.27355 60.8625 2.12756L65.7912 8.67172Z" fill="#515054"/>
<path d="M76.6649 6.54541L65.8705 -7.77756L69.6524 -10.6226L80.4419 3.70034L76.6649 6.54541Z" fill="#515054"/>
<path d="M-5.88415 86.152C-4.66905 85.2345 -4.2933 84.6099 -5.49376 83.0141C-6.51854 81.6526 -7.07973 81.6135 -8.49491 82.6774L-5.88415 86.152ZM-3.30268 97.1565L-14.097 82.8335L-9.84664 79.6273C-6.78694 77.3191 -4.41042 77.158 -1.89726 80.4862C0.596373 83.7998 0.24502 85.7225 -3.21972 88.3285L-3.86875 88.8214L0.342618 94.4041L-3.30268 97.1565Z" fill="#515054"/>
<path d="M6.72393 89.5952L-4.07043 75.2771L4.11806 69.1039L6.3433 72.0563L1.93674 75.3796L3.77159 77.8148L7.41688 75.0624L9.72996 78.1368L6.08466 80.8892L8.18791 83.6757L12.8238 80.1816L15.1369 83.256L6.72393 89.5952Z" fill="#515054"/>
</g>
<mask id="mask3_14_760" style="mask-type:luminance" maskUnits="userSpaceOnUse" x="0" y="0" width="167" height="166">
<path d="M0 166H166.015V0.0243988H0V166Z" fill="white"/>
</mask>
<g mask="url(#mask3_14_760)">
<path d="M17.2091 75.6278C17.8581 76.4819 18.5169 76.5209 19.0976 76.0768C19.6881 75.6376 19.8345 74.9934 19.1903 74.1346L18.1216 72.7193L17.1749 73.4318L15.1644 70.7576L19.8882 67.2L25.8856 75.1594L23.9482 76.6136L22.8405 76.2623C22.5623 77.536 21.9475 78.5022 20.8251 79.3465C17.0676 82.1769 15.0229 80.9666 10.7725 75.3204C6.69775 69.9133 6.50255 66.9365 10.143 64.189C12.1681 62.6664 14.5593 62.0515 16.5649 63.3545C17.1896 63.7596 17.7995 64.4281 18.6731 65.5847L14.8911 68.4298L14.2567 67.5953C13.6126 66.7364 12.9538 66.7022 12.3682 67.1414C11.7826 67.5855 11.6313 68.2248 12.2804 69.0837L17.2091 75.6278Z" fill="#515054"/>
<path d="M28.0857 73.5017L17.2914 59.1787L21.0684 56.3337L31.8628 70.6566L28.0857 73.5017Z" fill="#515054"/>
<path d="M36.2263 54.4195C37.4414 53.5021 37.8172 52.8774 36.6167 51.2817C35.5919 49.925 35.0307 49.8811 33.6156 50.9449L36.2263 54.4195ZM38.8078 65.4241L28.0134 51.1011L32.2638 47.8949C35.3235 45.5866 37.7001 45.4256 40.2132 48.7538C42.7068 52.0674 42.3555 53.9901 38.8956 56.6009L38.2417 57.0889L42.4531 62.6717L38.8078 65.4241Z" fill="#515054"/>
<path d="M48.8351 57.8628L38.0408 43.5398L46.2341 37.3714L48.4545 40.3239L44.0479 43.6472L45.8828 46.0823L49.5281 43.33L51.8412 46.4044L48.1959 49.1568L50.2991 51.9433L54.935 48.4492L57.2481 51.5236L48.8351 57.8628Z" fill="#515054"/>
<path d="M59.3198 43.8957C59.9688 44.7497 60.6276 44.7887 61.2132 44.3446C61.7988 43.9054 61.9501 43.2613 61.301 42.4024L60.2323 40.9872L59.2856 41.6996L57.2751 39.0254L61.9989 35.4678L67.9963 43.4272L66.0638 44.8814L64.9512 44.5301C64.6731 45.8038 64.0582 46.77 62.9358 47.6143C59.1783 50.4447 57.1336 49.2345 52.8832 43.5882C48.8085 38.1811 48.6133 35.2043 52.2537 32.4568C54.2788 30.9342 56.67 30.3194 58.6756 31.6223C59.3003 32.0274 59.9103 32.6959 60.7838 33.8525L57.0018 36.6976L56.3723 35.8631C55.7233 35.0042 55.0645 34.97 54.4789 35.4093C53.8982 35.8533 53.7421 36.4926 54.3911 37.3515L59.3198 43.8957Z" fill="#515054"/>
<path d="M70.1932 41.7681L59.3988 27.4451L63.1807 24.5951L73.9751 38.923L70.1932 41.7681Z" fill="#515054"/>
<path d="M78.3348 22.6844C79.5548 21.7719 79.9257 21.1423 78.7252 19.5466C77.7005 18.1899 77.1441 18.146 75.7241 19.2098L78.3348 22.6844ZM80.9163 33.689L70.1268 19.366L74.3772 16.1598C77.4369 13.8564 79.8135 13.6905 82.3217 17.0236C84.8202 20.3323 84.4689 22.255 80.9993 24.8609L80.3502 25.3538L84.5616 30.9366L80.9163 33.689Z" fill="#515054"/>
</g>
<path d="M90.9466 26.1318L80.1522 11.8089L88.3407 5.64048L90.566 8.59291L86.1545 11.9162L87.9894 14.3465L91.6347 11.599L93.9477 14.6735L90.3024 17.4209L92.4106 20.2074L97.0416 16.7182L99.3547 19.7926L90.9466 26.1318Z" fill="#515054"/>
<mask id="mask4_14_760" style="mask-type:luminance" maskUnits="userSpaceOnUse" x="0" y="0" width="166" height="166">
<path d="M0.00488281 166H166V0.0243988H0.00488281V166Z" fill="white"/>
</mask>
<g mask="url(#mask4_14_760)">
<path d="M101.431 12.1606C102.08 13.0195 102.734 13.0536 103.32 12.6144C103.91 12.1752 104.057 11.5262 103.408 10.6673L102.339 9.25205L101.397 9.96454L99.3819 7.29027L104.111 3.73271L110.108 11.6921L108.171 13.1512L107.058 12.795C106.78 14.0687 106.17 15.0349 105.043 15.8792C101.29 18.7096 99.2453 17.4993 94.9949 11.8531C90.9201 6.44602 90.7201 3.46918 94.3653 0.721712C96.3856 -0.800865 98.7768 -1.41575 100.782 -0.112778C101.412 0.292267 102.017 0.960835 102.891 2.11741L99.1086 4.96736L98.4791 4.12799C97.835 3.2691 97.1713 3.23982 96.5857 3.67903C96.005 4.11823 95.8537 4.7624 96.5027 5.61641L101.431 12.1606Z" fill="#515054"/>
<path d="M112.305 10.0344L101.51 -4.28854L105.287 -7.13361L116.087 7.18935L112.305 10.0344Z" fill="#515054"/>
<path d="M120.449 -9.04945C121.66 -9.96202 122.04 -10.5915 120.84 -12.1873C119.815 -13.544 119.249 -13.5879 117.839 -12.524L120.449 -9.04945ZM123.031 1.95508L112.232 -12.3679L116.487 -15.5741C119.547 -17.8775 121.923 -18.0434 124.436 -14.7103C126.925 -11.4016 126.579 -9.47889 123.114 -6.87294L122.46 -6.38006L126.676 -0.792394L123.031 1.95508Z" fill="#515054"/>
<path d="M0.252745 124.818L-10.5367 110.495L-2.34825 104.327L-0.127889 107.279L-4.53445 110.603L-2.6996 113.038L0.945692 110.29L3.25877 113.36L-0.386524 116.112L1.71672 118.903L6.35264 115.409L8.66572 118.479L0.252745 124.818Z" fill="#515054"/>
</g>
<mask id="mask5_14_760" style="mask-type:luminance" maskUnits="userSpaceOnUse" x="0" y="0" width="167" height="166">
<path d="M0 166H166.015V0.0243988H0V166Z" fill="white"/>
</mask>
<g mask="url(#mask5_14_760)">
<path d="M10.7408 110.851C11.385 111.705 12.0437 111.744 12.6293 111.305C13.2149 110.866 13.3662 110.217 12.7172 109.358L11.6533 107.943L10.7066 108.655L8.69124 105.981L13.4199 102.423L19.4124 110.383L17.48 111.837L16.3673 111.49C16.0892 112.759 15.4792 113.725 14.3519 114.575C10.5993 117.4 8.5546 116.19 4.3042 110.544C0.224591 105.137 0.0293947 102.16 3.67469 99.4122C5.69497 97.8897 8.09101 97.2748 10.0967 98.5777C10.7213 98.9828 11.3264 99.6514 12.1999 100.808L8.41796 103.653L7.78846 102.819C7.14431 101.96 6.48552 101.925 5.89505 102.365C5.31434 102.809 5.16306 103.453 5.80721 104.307L10.7408 110.851Z" fill="#515054"/>
<path d="M21.6118 108.723L10.8223 94.4004L14.6042 91.5554L25.3937 105.878L21.6118 108.723Z" fill="#515054"/>
<path d="M29.7587 89.6405C30.9738 88.723 31.3495 88.0984 30.1442 86.5026C29.1243 85.146 28.5582 85.102 27.143 86.1659L29.7587 89.6405ZM32.3353 100.645L21.5458 86.3221L25.7962 83.1159C28.8559 80.8076 31.2324 80.6465 33.7456 83.9747C36.2392 87.2883 35.8878 89.211 32.4231 91.8219L31.7741 92.3099L35.9806 97.8927L32.3353 100.645Z" fill="#515054"/>
<path d="M42.364 93.0837L31.5745 78.7608L39.7581 72.5924L41.9833 75.5448L37.5768 78.8681L39.4116 81.3033L43.0569 78.5558L45.37 81.6254L41.7247 84.3777L43.8279 87.1691L48.4638 83.675L50.7769 86.7445L42.364 93.0837Z" fill="#515054"/>
<path d="M52.852 79.117C53.4962 79.971 54.1598 80.01 54.7405 79.5708C55.331 79.1316 55.4774 78.4825 54.8284 77.6237L53.7646 76.2084L52.8179 76.9209L50.8024 74.2467L55.5311 70.6891L61.5236 78.6485L59.5912 80.1027L58.4785 79.7562C58.2004 81.0251 57.5904 81.9913 56.4631 82.8404C52.7105 85.666 50.6658 84.4557 46.4154 78.8095C42.3358 73.4024 42.1406 70.4256 45.7859 67.6781C47.8111 66.1555 50.2022 65.5406 52.2079 66.8436C52.8325 67.2487 53.4376 67.9172 54.3111 69.0738L50.5292 71.9189L49.8997 71.0844C49.2555 70.2255 48.5967 70.1913 48.0111 70.6305C47.4255 71.0746 47.2743 71.7188 47.9233 72.5728L52.852 79.117Z" fill="#515054"/>
<path d="M63.7231 76.9897L52.9336 62.6668L56.7106 59.8217L67.505 74.1447L63.7231 76.9897Z" fill="#515054"/>
<path d="M71.8701 57.9083C73.0803 56.9957 73.461 56.3662 72.2556 54.7704C71.2357 53.4138 70.6697 53.3699 69.2545 54.4337L71.8701 57.9083ZM74.4467 68.9128L63.6523 54.5899L67.9076 51.3837C70.9673 49.0803 73.3439 48.9144 75.8521 52.2475C78.3458 55.5561 77.9993 57.4789 74.5345 60.0897L73.8855 60.5777L78.0871 66.1605L74.4467 68.9128Z" fill="#515054"/>
<path d="M84.4748 61.3547L73.6804 47.0318L81.8689 40.8585L84.0942 43.8158L79.6827 47.1391L81.5176 49.5694L85.1629 46.8268L87.4759 49.8964L83.8306 52.6438L85.9339 55.4352L90.5698 51.9411L92.8829 55.0155L84.4748 61.3547Z" fill="#515054"/>
<path d="M94.9598 47.3841C95.6088 48.243 96.2676 48.2772 96.8532 47.838C97.4388 47.3988 97.5852 46.7497 96.9361 45.8908L95.8723 44.4756L94.9256 45.1881L92.9102 42.5187L97.6389 38.9563L103.636 46.9156L101.699 48.3748L100.586 48.0234C100.308 49.2922 99.6982 50.2585 98.5709 51.1076C94.8183 53.938 92.7736 52.7229 88.5232 47.0816C84.4484 41.6696 84.2484 38.6927 87.8937 35.9501C89.9139 34.4227 92.31 33.8078 94.3156 35.1108C94.9403 35.5158 95.5503 36.1844 96.4189 37.341L92.6369 40.1909L92.0074 39.3515C91.3633 38.4927 90.7045 38.4634 90.1189 38.9026C89.5333 39.3418 89.382 39.986 90.0311 40.84L94.9598 47.3841Z" fill="#515054"/>
<path d="M105.834 45.2573L95.0442 30.9344L98.8164 28.0893L109.616 42.4123L105.834 45.2573Z" fill="#515054"/>
<path d="M113.978 26.1732C115.189 25.2606 115.569 24.6311 114.369 23.0353C113.344 21.6787 112.778 21.6348 111.363 22.6986L113.978 26.1732ZM116.56 37.1777L105.761 22.8548L110.016 19.6486C113.076 17.3452 115.457 17.1793 117.965 20.5123C120.464 23.821 120.108 25.7438 116.643 28.3546L115.994 28.8426L120.205 34.4254L116.56 37.1777Z" fill="#515054"/>
<path d="M126.583 29.6201L115.794 15.2972L123.982 9.12876L126.207 12.0812L121.796 15.4045L123.631 17.8348L127.276 15.0922L129.594 18.1617L125.949 20.9092L128.047 23.7006L132.683 20.2065L135.001 23.2809L126.583 29.6201Z" fill="#515054"/>
</g>
<mask id="mask6_14_760" style="mask-type:luminance" maskUnits="userSpaceOnUse" x="0" y="0" width="166" height="166">
<path d="M0.00488281 166H166V0.0243988H0.00488281V166Z" fill="white"/>
</mask>
<g mask="url(#mask6_14_760)">
<path d="M137.074 15.65C137.718 16.5089 138.377 16.543 138.963 16.1038C139.543 15.6646 139.7 15.0156 139.051 14.1567L137.982 12.7415L137.035 13.454L135.025 10.7846L139.743 7.22213L145.746 15.1815L143.813 16.6406L142.701 16.2893C142.423 17.5581 141.808 18.5243 140.685 19.3735C136.933 22.2039 134.888 20.9888 130.638 15.3474C126.558 9.93544 126.363 6.95861 130.008 4.21601C132.028 2.68856 134.424 2.07367 136.425 3.37664C137.055 3.78169 137.66 4.45026 138.533 5.60683L134.751 8.45678L134.122 7.61741C133.478 6.75852 132.814 6.72924 132.228 7.16845C131.648 7.60765 131.496 8.25182 132.141 9.10583L137.074 15.65Z" fill="#515054"/>
<path d="M147.942 13.5222L137.152 -0.800749L140.934 -3.64582L151.724 10.6771L147.942 13.5222Z" fill="#515054"/>
<path d="M156.086 -5.56068C157.306 -6.47325 157.682 -7.10278 156.476 -8.69368C155.457 -10.0552 154.895 -10.0991 153.475 -9.0304L156.086 -5.56068ZM158.668 5.44385L147.878 -8.87912L152.124 -12.0853C155.183 -14.3838 157.565 -14.5546 160.073 -11.2215C162.571 -7.91287 162.22 -5.99012 158.75 -3.37929L158.101 -2.88641L162.313 2.69638L158.668 5.44385Z" fill="#515054"/>
<path d="M-6.21515 160.041L-17.0095 145.718L-8.82103 139.549L-6.59579 142.502L-11.0072 145.825L-9.17238 148.26L-5.52709 145.513L-3.21401 148.582L-6.8593 151.33L-4.75118 154.121L-0.120142 150.632L2.19294 153.701L-6.21515 160.041Z" fill="#515054"/>
<path d="M4.26937 146.074C4.91352 146.928 5.57231 146.967 6.1579 146.523C6.74348 146.084 6.89476 145.439 6.24573 144.581L5.18191 143.165L4.23521 143.878L2.21981 141.204L6.94356 137.646L12.941 145.605L11.0085 147.06L9.89591 146.713C9.61775 147.982 9.00776 148.948 7.8805 149.792C4.12785 152.623 2.08317 151.413 -2.16724 145.766C-6.24684 140.359 -6.44204 137.383 -2.79675 134.635C-0.776462 133.112 1.61958 132.498 3.62522 133.801C4.24985 134.206 4.85496 134.874 5.72846 136.031L1.94653 138.876L1.31702 138.041C0.672873 137.182 0.0140843 137.148 -0.576385 137.587C-1.15709 138.032 -1.30837 138.676 -0.659344 139.53L4.26937 146.074Z" fill="#515054"/>
</g>
<path d="M15.1435 143.947L4.34912 129.624L8.13105 126.774L18.9254 141.102L15.1435 143.947Z" fill="#515054"/>
<mask id="mask7_14_760" style="mask-type:luminance" maskUnits="userSpaceOnUse" x="0" y="0" width="167" height="166">
<path d="M0 166H166.015V0.0243988H0V166Z" fill="white"/>
</mask>
<g mask="url(#mask7_14_760)">
<path d="M23.2875 124.864C24.5026 123.946 24.8783 123.322 23.673 121.726C22.6531 120.369 22.087 120.325 20.6718 121.389L23.2875 124.864ZM25.8641 135.868L15.0697 121.545L19.325 118.339C22.3847 116.031 24.7612 115.87 27.2695 119.198C29.768 122.511 29.4166 124.434 25.9519 127.04L25.3029 127.533L29.5094 133.116L25.8641 135.868Z" fill="#515054"/>
<path d="M35.8956 128.307L25.1012 113.984L33.2897 107.816L35.5149 110.768L31.1035 114.091L32.9383 116.526L36.5836 113.779L38.8967 116.849L35.2563 119.596L37.3595 122.392L41.9906 118.898L44.3037 121.968L35.8956 128.307Z" fill="#515054"/>
<path d="M46.3807 114.34C47.0248 115.194 47.6836 115.233 48.2692 114.789C48.8548 114.35 49.0061 113.705 48.3571 112.846L47.2932 111.431L46.3465 112.139L44.3311 109.469L49.0598 105.912L55.0572 113.871L53.1199 115.326L52.0072 114.979C51.7291 116.248 51.1191 117.214 49.9918 118.058C46.2392 120.889 44.1945 119.679 39.9441 114.032C35.8645 108.625 35.6693 105.648 39.3146 102.901C41.3397 101.378 43.7309 100.763 45.7365 102.066C46.3612 102.471 46.9663 103.14 47.8398 104.297L44.0579 107.142L43.4332 106.307C42.7842 105.448 42.1254 105.414 41.5349 105.853C40.9542 106.297 40.803 106.942 41.452 107.796L46.3807 114.34Z" fill="#515054"/>
<path d="M57.2546 112.213L46.4602 97.8897L50.2421 95.0446L61.0365 109.368L57.2546 112.213Z" fill="#515054"/>
<path d="M65.3986 93.129C66.6137 92.2116 66.9894 91.5869 65.7841 89.9911C64.7642 88.6345 64.203 88.5906 62.7829 89.6544L65.3986 93.129ZM67.98 104.134L57.1857 89.8106L61.4361 86.6044C64.4958 84.2961 66.8723 84.1351 69.3806 87.4633C71.8791 90.7768 71.5277 92.6996 68.063 95.3055L67.414 95.7984L71.6205 101.381L67.98 104.134Z" fill="#515054"/>
<path d="M78.0038 96.5725L67.2144 82.2495L75.398 76.0812L77.6232 79.0336L73.2166 82.3569L75.0515 84.7921L78.6919 82.0446L81.005 85.1141L77.3646 87.8616L79.4678 90.6579L84.0989 87.1638L86.4217 90.2333L78.0038 96.5725Z" fill="#515054"/>
<path d="M88.489 82.6054C89.138 83.4594 89.7968 83.4984 90.3824 83.0544C90.968 82.6151 91.1144 81.971 90.4751 81.1121L89.4015 79.6969L88.4548 80.4094L86.4443 77.7351L91.1681 74.1775L97.1655 82.1369L95.233 83.5912L94.1155 83.2447C93.8374 84.5135 93.2274 85.4797 92.1001 86.324C88.3475 89.1544 86.3028 87.9442 82.0524 82.2979C77.9777 76.8908 77.7825 73.914 81.4229 71.1665C83.4529 69.644 85.8441 69.0291 87.8448 70.332C88.4695 70.7371 89.0795 71.4057 89.9481 72.5622L86.1759 75.4073L85.5366 74.5728C84.8974 73.7139 84.2337 73.6798 83.653 74.119C83.0625 74.5631 82.9112 75.2072 83.5603 76.0612L88.489 82.6054Z" fill="#515054"/>
<path d="M99.3629 80.478L88.5734 66.1551L92.3455 63.31L103.145 77.633L99.3629 80.478Z" fill="#515054"/>
<path d="M107.507 61.3966C108.722 60.484 109.097 59.8545 107.897 58.2587C106.872 56.9021 106.306 56.8581 104.896 57.922L107.507 61.3966ZM110.088 72.4011L99.2888 58.0782L103.544 54.872C106.604 52.5686 108.985 52.4027 111.493 55.7357C113.992 59.0444 113.636 60.9672 110.171 63.5731L109.522 64.066L113.733 69.6488L110.088 72.4011Z" fill="#515054"/>
<path d="M120.112 64.8433L109.322 50.5203L117.511 44.3519L119.736 47.3043L115.325 50.6277L117.159 53.0579L120.805 50.3153L123.123 53.3849L119.477 56.1324L121.576 58.9238L126.212 55.4296L128.53 58.5041L120.112 64.8433Z" fill="#515054"/>
<path d="M130.604 50.8722C131.248 51.7311 131.907 51.7653 132.492 51.3261C133.073 50.8869 133.229 50.2378 132.58 49.3789L131.511 47.9637L130.565 48.6762L128.554 46.0019L133.273 42.4444L139.27 50.4037L137.343 51.8629L136.23 51.5115C135.952 52.7803 135.337 53.7466 134.215 54.5908C130.462 57.4213 128.417 56.211 124.167 50.5648C120.087 45.1577 119.892 42.1809 123.537 39.4334C125.558 37.9108 127.949 37.2959 129.955 38.5989C130.584 39.0039 131.189 39.6725 132.063 40.8291L128.281 43.679L127.651 42.8397C127.007 41.9808 126.343 41.9515 125.758 42.3907C125.177 42.8299 125.026 43.4741 125.67 44.3281L130.604 50.8722Z" fill="#515054"/>
<path d="M141.477 48.7454L130.683 34.4224L134.46 31.5773L145.25 45.9003L141.477 48.7454Z" fill="#515054"/>
</g>
<mask id="mask8_14_760" style="mask-type:luminance" maskUnits="userSpaceOnUse" x="0" y="0" width="166" height="166">
<path d="M0.00488281 166H166V0.0243988H0.00488281V166Z" fill="white"/>
</mask>
<g mask="url(#mask8_14_760)">
<path d="M149.622 29.6625C150.832 28.7499 151.212 28.1204 150.002 26.5246C148.987 25.1679 148.421 25.124 147.001 26.1879L149.622 29.6625ZM152.193 40.667L141.404 26.344L145.659 23.1378C148.714 20.8344 151.095 20.6685 153.604 24.0016C156.097 27.3103 155.751 29.233 152.286 31.839L151.632 32.3319L155.839 37.9195L152.193 40.667Z" fill="#515054"/>
<path d="M162.226 33.1089L151.437 18.7859L159.621 12.6175L161.846 15.57L157.434 18.8933L159.269 21.3236L162.914 18.581L165.228 21.6505L161.582 24.398L163.69 27.1894L168.321 23.6953L170.634 26.7697L162.226 33.1089Z" fill="#515054"/>
<path d="M172.711 19.1377C173.36 19.9966 174.019 20.0308 174.605 19.5915C175.19 19.1523 175.337 18.5033 174.688 17.6444L173.624 16.2292L172.677 16.9417L170.662 14.2674L175.39 10.7098L181.388 18.6692L179.451 20.1284L178.338 19.777C178.06 21.0458 177.45 22.0121 176.323 22.8612C172.57 25.6867 170.525 24.4765 166.275 18.8303C162.2 13.4232 162 10.4463 165.645 7.69885C167.666 6.17628 170.066 5.56139 172.067 6.86436C172.692 7.26941 173.302 7.93797 174.17 9.09455L170.389 11.9445L169.759 11.1051C169.115 10.2462 168.456 10.217 167.866 10.6562C167.285 11.0954 167.134 11.7395 167.783 12.5935L172.711 19.1377Z" fill="#515054"/>
<path d="M8.67254 179.169L-2.12183 164.846L1.66011 161.997L12.4496 176.324L8.67254 179.169Z" fill="#515054"/>
<path d="M16.8167 160.087C18.0318 159.169 18.4075 158.544 17.207 156.949C16.1823 155.592 15.6211 155.548 14.2059 156.612L16.8167 160.087ZM19.3932 171.091L8.60376 156.768L12.8542 153.562C15.9139 151.259 18.2904 151.093 20.8035 154.421C23.2972 157.734 22.9458 159.657 19.4811 162.263L18.8321 162.756L23.0385 168.339L19.3932 171.091Z" fill="#515054"/>
</g>
<path d="M29.425 163.53L18.6306 149.212L26.8191 143.038L29.0443 145.991L24.6378 149.314L26.4726 151.749L30.1179 149.002L32.431 152.071L28.7857 154.819L30.889 157.61L35.52 154.121L37.8331 157.191L29.425 163.53Z" fill="#515054"/>
<mask id="mask9_14_760" style="mask-type:luminance" maskUnits="userSpaceOnUse" x="0" y="0" width="167" height="166">
<path d="M0 166H166.015V0.0243988H0V166Z" fill="white"/>
</mask>
<g mask="url(#mask9_14_760)">
<path d="M39.9099 149.562C40.5589 150.421 41.2177 150.455 41.7984 150.016C42.3889 149.577 42.5353 148.928 41.8911 148.069L40.8224 146.654L39.8757 147.366L37.8652 144.692L42.589 141.134L48.5864 149.094L46.649 150.548L45.5364 150.201C45.2631 151.47 44.6483 152.436 43.5259 153.286C39.7684 156.111 37.7237 154.901 33.4733 149.255C29.3986 143.847 29.2034 140.871 32.8438 138.123C34.8689 136.601 37.2601 135.986 39.2657 137.289C39.8904 137.694 40.5004 138.362 41.3739 139.519L37.5919 142.364L36.9575 141.529C36.3134 140.671 35.6546 140.641 35.069 141.08C34.4834 141.52 34.3321 142.164 34.9812 143.018L39.9099 149.562Z" fill="#515054"/>
<path d="M50.7836 147.435L39.9893 133.112L43.7712 130.262L54.5656 144.59L50.7836 147.435Z" fill="#515054"/>
<path d="M58.9271 128.352C60.1422 127.434 60.518 126.81 59.3175 125.214C58.2927 123.857 57.7315 123.813 56.3164 124.877L58.9271 128.352ZM61.5086 139.356L50.7142 125.033L54.9646 121.827C58.0243 119.524 60.4009 119.358 62.914 122.686C65.4077 126 65.0563 127.922 61.5916 130.528L60.9425 131.021L65.149 136.604L61.5086 139.356Z" fill="#515054"/>
<path d="M71.5359 131.795L60.7416 117.477L68.9301 111.304L71.1553 114.256L66.7488 117.58L68.5836 120.015L72.224 117.267L74.542 120.337L70.8967 123.084L72.9999 125.876L77.631 122.386L79.944 125.456L71.5359 131.795Z" fill="#515054"/>
<path d="M82.0178 117.827C82.6668 118.686 83.3256 118.72 83.9112 118.281C84.4968 117.842 84.6432 117.193 84.0039 116.334L82.9303 114.919L81.9836 115.631L79.9731 112.957L84.6969 109.4L90.6943 117.359L88.7618 118.813L87.6443 118.467C87.3759 119.736 86.7562 120.702 85.6338 121.551C81.8763 124.376 79.8316 123.166 75.5812 117.52C71.5113 112.113 71.3113 109.136 74.9566 106.389C76.9817 104.866 79.3729 104.251 81.3736 105.554C81.9983 105.959 82.6083 106.628 83.4818 107.784L79.7047 110.629L79.0654 109.795C78.4262 108.936 77.7674 108.907 77.1818 109.346C76.5962 109.785 76.4449 110.429 77.094 111.283L82.0178 117.827Z" fill="#515054"/>
<path d="M92.8915 115.701L82.1021 101.378L85.884 98.5334L96.6735 112.856L92.8915 115.701Z" fill="#515054"/>
<path d="M101.036 96.6178C102.256 95.7052 102.627 95.0757 101.426 93.4799C100.401 92.1233 99.8401 92.0793 98.4249 93.1432L101.036 96.6178ZM103.617 107.622L92.8276 93.2993L97.0732 90.0932C100.133 87.7946 102.514 87.6238 105.023 90.9569C107.521 94.2656 107.17 96.1883 103.7 98.7992L103.051 99.2872L107.262 104.87L103.617 107.622Z" fill="#515054"/>
<path d="M113.641 100.064L102.851 85.7461L111.04 79.5729L113.265 82.5253L108.854 85.8486L110.689 88.2789L114.334 85.5363L116.647 88.6058L113.007 91.3533L115.105 94.1447L119.741 90.6506L122.059 93.725L113.641 100.064Z" fill="#515054"/>
<path d="M124.132 86.0931C124.781 86.9569 125.434 86.9862 126.02 86.5469C126.611 86.1077 126.757 85.4587 126.108 84.5998L125.039 83.1846L124.097 83.8971L122.082 81.2277L126.811 77.6652L132.803 85.6246L130.871 87.0838L129.758 86.7324C129.48 88.0012 128.865 88.9675 127.743 89.8166C123.99 92.647 121.945 91.4319 117.695 85.7905C113.62 80.3786 113.42 77.4066 117.065 74.6591C119.086 73.1317 121.482 72.5168 123.483 73.8198C124.112 74.2248 124.717 74.8934 125.591 76.0499L121.809 78.8999L121.179 78.0605C120.535 77.2016 119.871 77.1724 119.286 77.6116C118.705 78.0508 118.554 78.6949 119.203 79.5538L124.132 86.0931Z" fill="#515054"/>
<path d="M135.005 83.9668L124.211 69.6438L127.988 66.7988L138.777 81.1217L135.005 83.9668Z" fill="#515054"/>
<path d="M143.15 64.8849C144.36 63.9723 144.741 63.3428 143.531 61.747C142.516 60.3903 141.95 60.3464 140.54 61.4103L143.15 64.8849ZM145.722 75.8845L134.932 61.5664L139.188 58.3602C142.247 56.0617 144.624 55.8909 147.137 59.224C149.626 62.5327 149.279 64.4554 145.815 67.0663L145.161 67.5543L149.367 73.1371L145.722 75.8845Z" fill="#515054"/>
</g>
<path d="M155.755 68.3301L144.966 54.012L153.149 47.8387L155.375 50.796L150.968 54.1145L152.803 56.5447L156.443 53.8022L158.756 56.8717L155.121 59.6192L157.219 62.4106L161.85 58.9213L164.163 61.9909L155.755 68.3301Z" fill="#515054"/>
<mask id="mask10_14_760" style="mask-type:luminance" maskUnits="userSpaceOnUse" x="0" y="0" width="166" height="166">
<path d="M0.00488281 166H166V0.0243988H0.00488281V166Z" fill="white"/>
</mask>
<g mask="url(#mask10_14_760)">
<path d="M166.24 54.3609C166.889 55.2247 167.548 55.254 168.134 54.8148C168.719 54.3756 168.866 53.7265 168.226 52.8676L167.153 51.4524L166.206 52.1649L164.195 49.4955L168.919 45.9331L174.917 53.8924L172.979 55.3516L171.867 55.0002C171.598 56.269 170.979 57.2353 169.856 58.0844C166.099 60.9148 164.054 59.6997 159.804 54.0584C155.729 48.6464 155.529 45.6695 159.174 42.927C161.204 41.3995 163.595 40.7846 165.596 42.0876C166.221 42.4926 166.831 43.1612 167.699 44.3178L163.927 47.1677L163.288 46.3284C162.649 45.4695 161.985 45.4402 161.404 45.8794C160.819 46.3186 160.662 46.9628 161.311 47.8216L166.24 54.3609Z" fill="#515054"/>
<path d="M52.4531 163.575C53.6682 162.662 54.044 162.032 52.8435 160.437C51.8187 159.08 51.2575 159.036 49.8424 160.105L52.4531 163.575ZM55.0346 174.579L44.2402 160.256L48.4955 157.05C51.5503 154.747 53.9317 154.581 56.44 157.914C58.9385 161.222 58.5823 163.145 55.1224 165.756L54.4685 166.249L58.6799 171.832L55.0346 174.579Z" fill="#515054"/>
<path d="M65.0618 167.021L54.2675 152.698L62.456 146.53L64.6812 149.482L60.2746 152.806L62.1095 155.241L65.7499 152.493L68.0679 155.563L64.4226 158.31L66.5258 161.102L71.1617 157.608L73.4748 160.682L65.0618 167.021Z" fill="#515054"/>
</g>
<mask id="mask11_14_760" style="mask-type:luminance" maskUnits="userSpaceOnUse" x="0" y="0" width="167" height="166">
<path d="M0 166H166.015V0.0243988H0V166Z" fill="white"/>
</mask>
<g mask="url(#mask11_14_760)">
<path d="M75.55 153.051C76.1942 153.91 76.853 153.944 77.4386 153.505C78.0242 153.066 78.1706 152.416 77.5264 151.558L76.4626 150.147L75.5159 150.855L73.5005 148.185L78.2242 144.623L84.2216 152.582L82.2892 154.042L81.1766 153.695C80.8984 154.959 80.2884 155.925 79.1563 156.774C75.4036 159.605 73.3638 158.39 69.1086 152.748C65.0338 147.336 64.8386 144.359 68.4839 141.617C70.5042 140.089 72.9002 139.475 74.9059 140.778C75.5305 141.183 76.1356 141.851 77.0091 143.008L73.2272 145.858L72.5977 145.018C71.9535 144.159 71.2948 144.13 70.7043 144.569C70.1236 145.009 69.9723 145.653 70.6164 146.507L75.55 153.051Z" fill="#515054"/>
<path d="M86.4205 150.924L75.631 136.601L79.4032 133.751L90.2024 148.079L86.4205 150.924Z" fill="#515054"/>
<path d="M94.5646 131.84C95.7748 130.928 96.1554 130.298 94.955 128.702C93.9302 127.346 93.3641 127.302 91.9538 128.37L94.5646 131.84ZM97.1461 142.845L86.3517 128.522L90.6021 125.316C93.6618 123.012 96.0432 122.846 98.5515 126.179C101.05 129.488 100.694 131.411 97.229 134.022L96.5751 134.514L100.791 140.097L97.1461 142.845Z" fill="#515054"/>
<path d="M107.17 135.287L96.3804 120.964L104.569 114.796L106.794 117.748L102.383 121.071L104.218 123.506L107.863 120.759L110.181 123.828L106.535 126.576L108.634 129.372L113.27 125.873L115.588 128.948L107.17 135.287Z" fill="#515054"/>
<path d="M117.661 121.317C118.305 122.176 118.964 122.21 119.55 121.771C120.13 121.331 120.286 120.682 119.637 119.823L118.569 118.413L117.622 119.121L115.612 116.451L120.33 112.889L126.333 120.848L124.4 122.307L123.288 121.961C123.009 123.225 122.395 124.191 121.272 125.04C117.52 127.871 115.475 126.656 111.224 121.014C107.145 115.602 106.95 112.625 110.595 109.883C112.615 108.355 115.011 107.74 117.012 109.043C117.642 109.448 118.247 110.117 119.12 111.274L115.338 114.124L114.709 113.284C114.065 112.425 113.401 112.396 112.815 112.835C112.235 113.274 112.083 113.919 112.727 114.773L117.661 121.317Z" fill="#515054"/>
<path d="M128.528 119.193L117.739 104.87L121.521 102.02L132.31 116.343L128.528 119.193Z" fill="#515054"/>
<path d="M136.679 100.106C137.894 99.1933 138.27 98.5637 137.059 96.9679C136.044 95.6113 135.478 95.5674 134.058 96.6361L136.679 100.106ZM139.255 111.11L128.461 96.7874L132.711 93.5812C135.771 91.2827 138.153 91.1119 140.661 94.445C143.154 97.7585 142.808 99.6764 139.338 102.292L138.689 102.78L142.896 108.363L139.255 111.11Z" fill="#515054"/>
</g>
<path d="M149.284 103.556L138.489 89.2327L146.678 83.0643L148.903 86.0167L144.491 89.3352L146.326 91.7703L149.972 89.0229L152.285 92.0973L148.639 94.8399L150.743 97.6362L155.379 94.142L157.692 97.2165L149.284 103.556Z" fill="#515054"/>
<mask id="mask12_14_760" style="mask-type:luminance" maskUnits="userSpaceOnUse" x="0" y="0" width="166" height="166">
<path d="M0.00488281 166H166V0.0243988H0.00488281V166Z" fill="white"/>
</mask>
<g mask="url(#mask12_14_760)">
<path d="M159.769 89.5856C160.418 90.4445 161.072 90.4787 161.657 90.0346C162.248 89.5954 162.394 88.9512 161.745 88.0923L160.677 86.6771L159.735 87.3896L157.719 84.7202L162.448 81.1578L168.445 89.1172L166.508 90.5763L165.395 90.2249C165.117 91.4937 164.507 92.46 163.38 93.3042C159.627 96.1396 157.583 94.9244 153.332 89.2782C149.258 83.8711 149.057 80.8943 152.703 78.1517C154.723 76.6242 157.119 76.0093 159.125 77.3123C159.749 77.7173 160.359 78.3859 161.228 79.5425L157.446 82.3924L156.821 81.5531C156.172 80.6942 155.509 80.66 154.923 81.0992C154.342 81.5433 154.191 82.1826 154.84 83.0415L159.769 89.5856Z" fill="#515054"/>
<path d="M170.643 87.459L159.853 73.136L163.625 70.2861L174.425 84.609L170.643 87.459Z" fill="#515054"/>
<path d="M88.0934 167.063C89.3036 166.151 89.6842 165.521 88.4838 163.925C87.459 162.569 86.8929 162.525 85.4826 163.594L88.0934 167.063ZM90.6749 178.068L79.8756 163.745L84.1309 160.539C87.1906 158.235 89.572 158.069 92.0803 161.402C94.5788 164.711 94.2274 166.634 90.7578 169.245L90.1088 169.733L94.3202 175.32L90.6749 178.068Z" fill="#515054"/>
<path d="M100.698 170.51L89.9086 156.187L98.0971 150.019L100.322 152.971L95.9109 156.294L97.7457 158.725L101.391 155.977L103.704 159.052L100.064 161.799L102.162 164.591L106.798 161.096L109.116 164.171L100.698 170.51Z" fill="#515054"/>
</g>
<mask id="mask13_14_760" style="mask-type:luminance" maskUnits="userSpaceOnUse" x="0" y="0" width="167" height="166">
<path d="M0 166H166.015V0.0243988H0V166Z" fill="white"/>
</mask>
<g mask="url(#mask13_14_760)">
<path d="M111.19 156.54C111.834 157.398 112.493 157.433 113.078 156.993C113.669 156.554 113.815 155.905 113.166 155.046L112.098 153.636L111.156 154.344L109.14 151.674L113.859 148.112L119.861 156.071L117.929 157.53L116.816 157.179C116.538 158.448 115.923 159.414 114.801 160.263C111.048 163.089 109.004 161.878 104.753 156.237C100.679 150.825 100.478 147.853 104.124 145.106C106.144 143.578 108.54 142.963 110.541 144.266C111.17 144.671 111.775 145.34 112.649 146.496L108.867 149.346L108.238 148.507C107.593 147.648 106.93 147.619 106.344 148.058C105.763 148.497 105.612 149.141 106.256 149.995L111.19 156.54Z" fill="#515054"/>
<path d="M122.057 154.416L111.267 140.093L115.049 137.248L125.839 151.566L122.057 154.416Z" fill="#515054"/>
<path d="M130.208 135.329C131.423 134.417 131.798 133.787 130.588 132.192C129.573 130.835 129.007 130.791 127.587 131.86L130.208 135.329ZM132.784 146.334L121.99 132.011L126.24 128.805C129.3 126.506 131.681 126.336 134.19 129.669C136.683 132.982 136.337 134.9 132.872 137.511L132.218 137.999L136.425 143.587L132.784 146.334Z" fill="#515054"/>
<path d="M142.813 138.779L132.019 124.456L140.207 118.283L142.432 121.24L138.021 124.559L139.856 126.989L143.501 124.246L145.814 127.321L142.169 130.063L144.277 132.855L148.908 129.365L151.221 132.435L142.813 138.779Z" fill="#515054"/>
</g>
<mask id="mask14_14_760" style="mask-type:luminance" maskUnits="userSpaceOnUse" x="0" y="0" width="166" height="166">
<path d="M0.00488281 166H166V0.0243988H0.00488281V166Z" fill="white"/>
</mask>
<g mask="url(#mask14_14_760)">
<path d="M153.298 124.805C153.947 125.669 154.605 125.698 155.191 125.259C155.777 124.82 155.923 124.176 155.274 123.312L154.21 121.902L153.263 122.614L151.248 119.94L155.977 116.377L161.974 124.337L160.037 125.796L158.924 125.445C158.646 126.713 158.036 127.68 156.909 128.529C153.156 131.359 151.111 130.144 146.861 124.503C142.786 119.091 142.586 116.114 146.231 113.371C148.252 111.844 150.648 111.229 152.653 112.532C153.278 112.937 153.888 113.606 154.757 114.762L150.975 117.612L150.345 116.773C149.701 115.914 149.037 115.885 148.452 116.324C147.871 116.763 147.72 117.407 148.369 118.266L153.298 124.805Z" fill="#515054"/>
<path d="M164.171 122.681L153.377 108.358L157.154 105.513L167.953 119.831L164.171 122.681Z" fill="#515054"/>
<path d="M172.316 103.595C173.531 102.682 173.906 102.053 172.706 100.457C171.681 99.1003 171.115 99.0564 169.705 100.125L172.316 103.595ZM174.897 114.599L164.098 100.276L168.353 97.0702C171.413 94.7717 173.794 94.6009 176.302 97.934C178.791 101.248 178.45 103.165 174.98 105.776L174.331 106.264L178.542 111.852L174.897 114.599Z" fill="#515054"/>
<path d="M126.175 168.714C127.395 167.797 127.765 167.172 126.565 165.581C125.54 164.219 124.974 164.176 123.564 165.239L126.175 168.714ZM128.756 179.719L117.967 165.396L122.212 162.189C125.272 159.886 127.653 159.72 130.161 163.048C132.66 166.362 132.309 168.285 128.839 170.895L128.19 171.383L132.401 176.971L128.756 179.719Z" fill="#515054"/>
<path d="M138.786 172.16L127.992 157.837L136.18 151.668L138.406 154.621L133.994 157.939L135.829 160.379L139.474 157.632L141.787 160.701L138.142 163.449L140.245 166.24L144.881 162.746L147.194 165.816L138.786 172.16Z" fill="#515054"/>
</g>
<mask id="mask15_14_760" style="mask-type:luminance" maskUnits="userSpaceOnUse" x="0" y="0" width="167" height="166">
<path d="M0 166H166.015V0.0243988H0V166Z" fill="white"/>
</mask>
<g mask="url(#mask15_14_760)">
<path d="M149.271 158.193C149.915 159.047 150.574 159.086 151.16 158.642C151.741 158.203 151.897 157.559 151.248 156.7L150.179 155.28L149.232 155.997L147.222 153.323L151.95 149.765L157.948 157.72L156.01 159.179L154.898 158.827C154.62 160.101 154.005 161.067 152.882 161.912C149.13 164.742 147.085 163.532 142.835 157.881C138.755 152.478 138.56 149.502 142.205 146.754C144.225 145.232 146.622 144.617 148.622 145.92C149.252 146.325 149.857 146.988 150.73 148.15L146.948 150.995L146.319 150.16C145.675 149.302 145.011 149.262 144.426 149.707C143.845 150.146 143.694 150.79 144.338 151.649L149.271 158.193Z" fill="#515054"/>
</g>
<path d="M160.145 156.066L149.351 141.743L153.128 138.893L163.917 153.216L160.145 156.066Z" fill="#515054"/>
<mask id="mask16_14_760" style="mask-type:luminance" maskUnits="userSpaceOnUse" x="0" y="0" width="166" height="166">
<path d="M0.00488281 166H166V0.0243988H0.00488281V166Z" fill="white"/>
</mask>
<g mask="url(#mask16_14_760)">
<path d="M168.289 136.979C169.504 136.062 169.88 135.437 168.67 133.846C167.655 132.485 167.089 132.441 165.679 133.505L168.289 136.979ZM170.871 147.984L160.072 133.661L164.327 130.455C167.387 128.151 169.763 127.985 172.271 131.314C174.765 134.627 174.418 136.55 170.954 139.161L170.3 139.649L174.516 145.236L170.871 147.984Z" fill="#515054"/>
</g>
<mask id="mask17_14_760" style="mask-type:luminance" maskUnits="userSpaceOnUse" x="0" y="0" width="167" height="166">
<path d="M0 166H166.015V0.0243988H0V166Z" fill="white"/>
</mask>
<g mask="url(#mask17_14_760)">
<path d="M83.0031 18.3848C40.9724 18.4336 11.1073 38.4711 10.9707 64.3306C11.0439 78.2143 19.7448 90.3803 34.2381 98.7203L31.5444 134.34L58.2229 107.661C65.8453 109.32 74.1314 110.267 83.0031 110.276C125.029 110.227 154.899 90.19 155.031 64.3306C154.899 38.4711 125.029 18.4336 83.0031 18.3848Z" fill="white"/>
<path d="M115.923 70.8227C112.99 69.7735 107.959 67.2651 102.523 64.3273C107.544 61.3944 112.156 59.091 115.713 57.4123C114.034 52.8055 111.106 47.9889 111.106 47.9889C107.754 50.5021 103.142 53.6449 97.9062 56.7828C97.9062 50.0776 98.1209 44.0068 98.5308 40.864C98.5308 40.864 93.2947 42.1231 88.688 41.7034C89.1126 45.056 89.3127 50.5021 89.3127 56.7828C83.8716 53.6449 79.0502 50.5021 76.5419 48.8234C76.5419 48.8234 74.6534 54.0597 71.3009 57.4123C74.2337 58.6762 79.4699 61.3944 85.1257 64.5421C79.26 67.8898 74.0288 70.6129 71.0911 72.0818C71.0911 72.0818 74.6534 76.0639 76.7469 80.046C79.26 78.1574 83.8716 75.2196 89.3127 71.867C89.1126 77.7329 88.8979 82.974 88.4782 86.9562C93.5045 87.371 99.3702 87.5857 99.3702 87.5857C98.7455 84.4381 98.3259 78.7821 98.1209 72.0818C103.352 75.2196 108.169 78.3624 111.316 80.6658C113.405 75.4344 115.923 70.8227 115.923 70.8227Z" fill="black"/>
<path fill-rule="evenodd" clip-rule="evenodd" d="M48.3814 65.1755C47.8202 67.884 45.2973 70.1239 42.7744 69.5676C40.2515 69.0064 39.3146 65.5513 40.4418 62.0913C41.2812 59.4756 44.0822 57.7042 46.4148 58.729C48.5669 59.5683 48.9426 62.3744 48.3814 65.1755ZM67.2569 64.3313C68.8429 45.4552 57.258 37.1445 43.7065 38.0766C29.7841 39.0087 20.2536 51.4382 20.5367 65.1755C20.8099 77.8832 27.2612 87.8824 40.9054 88.3509C45.6731 88.5364 49.782 87.5067 53.1491 85.6376C50.6262 83.3977 48.8499 80.128 48.8499 80.128C46.4148 81.4359 43.8041 82.0947 41.2812 81.9971C33.4294 81.6262 28.7544 75.2626 28.3836 67.1422C27.9151 56.4842 34.176 47.6073 43.1453 46.3922C55.389 44.7086 60.4348 52.3751 59.8688 63.0283C59.4052 72.5542 55.9502 73.3984 55.5744 70.2215C55.0181 64.8046 55.5744 55.8302 55.672 51.7212C52.3976 51.5309 48.3814 50.7842 48.3814 50.7842C48.4742 51.5309 48.5669 52.2775 48.6547 53.1218C47.0736 51.9994 45.107 51.4382 43.0526 51.5309C37.2601 51.8091 32.7804 57.0454 32.024 64.1458C31.4677 69.5676 33.5172 77.2293 40.6224 77.9808C43.9846 78.3517 46.7906 77.0438 48.9426 74.8966C49.8747 78.0686 53.237 79.8499 56.2283 79.6595C62.3965 79.2838 66.4176 73.1203 67.2569 64.3313Z" fill="black"/>
<path fill-rule="evenodd" clip-rule="evenodd" d="M136.841 84.6607C137.251 82.1426 135.143 79.2926 131.541 79.0194C128.145 78.6826 125.563 80.6542 125.427 83.3724C125.295 86.2858 127.471 89.0771 131.068 89.0771C134.123 89.0771 136.431 87.2422 136.841 84.6607ZM137.114 39.6812C131.883 40.0863 125.632 41.033 125.632 41.033C126.847 51.1591 126.988 66.7167 126.173 76.4378C126.173 76.4378 131.614 75.2129 136.299 75.5545C135.348 65.2918 136.026 49.3925 137.114 39.6812Z" fill="black"/>
<path d="M162.677 162.677H3.32319V3.31845H162.677V162.677ZM0.00488281 166H166V4.57764e-05H0.00488281V166Z" fill="black"/>
<path d="M165.995 166H0V139.438H165.995V166Z" fill="black"/>
<path d="M20.3307 157.963H21.2286C22.3022 157.963 22.6731 157.363 22.6731 155.87C22.6731 154.274 22.3754 153.678 21.1798 153.678H20.3307V157.963ZM20.3307 150.638H20.8529C21.8777 150.638 22.4242 150.111 22.4242 148.642C22.4242 147.271 22.0485 146.646 21.053 146.646H20.3307V150.638ZM16.295 143.406H21.4775C25.1667 143.406 26.4648 144.953 26.4648 147.847C26.4648 150.584 25.4156 151.434 24.5958 151.804V151.853C25.5132 151.931 26.9625 153.429 26.9625 156.24C26.9625 159.705 25.318 161.301 22.0777 161.301H16.295V143.406Z" fill="white"/>
<path d="M32.1842 155.57H34.2777L33.2285 148.216H33.1797L32.1842 155.57ZM38.8404 161.304H34.8486L34.5021 159.059H31.9597L31.6083 161.304H27.6215L30.7104 143.404H35.7465L38.8404 161.304Z" fill="white"/>
<path d="M43.9866 157.862C45.8801 157.862 46.0313 157.193 46.0313 153.924V150.683C46.0313 147.419 45.8801 146.745 43.9866 146.745V157.862ZM39.7997 143.407H44.0354C48.7738 143.407 50.2183 144.603 50.2183 152.352C50.2183 159.209 49.1935 161.302 44.0354 161.302H39.7997V143.407Z" fill="white"/>
<path d="M57.7769 161.302V143.407H61.9638V157.461H67.3464V161.302H57.7769Z" fill="white"/>
<path d="M72.2716 155.57H74.3602L73.3208 148.216H73.2671L72.2716 155.57ZM78.9229 161.304H74.936L74.5895 159.059H72.0471L71.6958 161.304H67.7089L70.7978 143.404H75.8339L78.9229 161.304Z" fill="white"/>
<path d="M79.8877 161.302V143.407H83.9039L86.6171 151.332H86.6659V143.407H90.2575V161.302H86.3682L83.5232 152.03H83.4793V161.302H79.8877Z" fill="white"/>
<path d="M96.3252 156.468C96.3252 157.536 96.7741 157.961 97.4231 157.961C98.0673 157.961 98.5162 157.536 98.5162 156.468V154.696H97.4719V151.358H102.703V161.304H100.561L99.9607 160.357C99.0921 161.201 98.1454 161.602 96.901 161.602C92.7384 161.602 91.9381 159.41 91.9381 152.354C91.9381 145.6 93.3826 143.106 97.4231 143.106C99.663 143.106 101.683 144.053 102.406 146.298C102.63 146.996 102.703 147.893 102.703 149.338H98.5162V148.289C98.5162 147.22 98.0673 146.795 97.4231 146.795C96.7741 146.795 96.3252 147.22 96.3252 148.289V156.468Z" fill="white"/>
<path d="M115.155 143.405V156.913C115.155 159.91 113.31 161.598 109.972 161.598C106.63 161.598 104.785 159.91 104.785 156.913V143.405H108.972V156.416C108.972 157.313 109.201 157.811 109.972 157.811C110.743 157.811 110.968 157.313 110.968 156.416V143.405H115.155Z" fill="white"/>
<path d="M120.676 155.57H122.769L121.725 148.216H121.672L120.676 155.57ZM127.327 161.304H123.34L122.994 159.059H120.452L120.1 161.304H116.113L119.202 143.404H124.238L127.327 161.304Z" fill="white"/>
<path d="M132.28 156.468C132.28 157.536 132.729 157.961 133.373 157.961C134.022 157.961 134.471 157.536 134.471 156.468V154.696H133.427V151.358H138.658V161.304H136.516L135.916 160.357C135.047 161.201 134.1 161.602 132.856 161.602C128.688 161.602 127.893 159.41 127.893 152.354C127.893 145.6 129.337 143.106 133.373 143.106C135.618 143.106 137.638 144.053 138.36 146.298C138.585 146.996 138.658 147.893 138.658 149.338H134.471V148.289C134.471 147.22 134.022 146.795 133.373 146.795C132.729 146.795 132.28 147.22 132.28 148.289V156.468Z" fill="white"/>
<path d="M140.742 161.302V143.407H149.813V147.096H144.929V150.136H148.964V153.972H144.929V157.461H150.062V161.302H140.742Z" fill="white"/>
<path d="M159.358 16.1924H157.816V8.67222H157.767L155.122 16.1924H153.868L151.35 8.67222H151.306V16.1924H149.759V6.64211H152.213L154.59 13.7426H154.639L156.957 6.64211H159.358V16.1924ZM148.661 6.64211V7.87677H146.031V16.1924H144.489V7.87677H141.863V6.64211H148.661Z" fill="white"/>
</g>
</g>
<defs>
<clipPath id="clip0_14_760">
<rect width="166" height="166" fill="white"/>
</clipPath>
</defs>
</svg>
