<svg width="200" height="155" viewBox="0 0 200 155" fill="none" xmlns="http://www.w3.org/2000/svg">
<g clip-path="url(#clip0_13_87)">
<path fill-rule="evenodd" clip-rule="evenodd" d="M197.239 118.962C193.371 123.842 183.896 127.322 183.896 127.322L113.404 152.642V133.97L165.281 115.486C171.168 113.376 172.072 110.395 167.287 108.829C162.511 107.26 153.862 107.71 147.971 109.828L113.404 122.002V102.623L115.397 101.949C115.397 101.949 125.385 98.4137 139.431 96.8576C153.476 95.3105 170.673 97.069 184.174 102.187C199.389 106.995 201.102 114.082 197.239 118.962ZM120.115 87.1659V39.4133C120.115 33.8051 119.08 28.6422 113.818 27.1805C109.789 25.8898 107.288 29.6316 107.288 35.2352V154.819L75.0378 144.583V2C88.7502 4.54549 108.727 10.5629 119.467 14.1833C146.779 23.5602 156.039 35.2307 156.039 61.5266C156.039 87.1569 140.218 96.8711 120.115 87.1659ZM15.862 132.018C0.242793 127.619 -2.35666 118.454 4.7626 113.174C11.3422 108.299 22.5315 104.629 22.5315 104.629L68.773 88.1867V106.932L35.4973 118.841C29.6193 120.95 28.7154 123.936 33.4915 125.501C38.2722 127.066 46.925 126.621 52.812 124.507L68.773 118.715V135.485C67.7611 135.665 66.6323 135.845 65.5889 136.02C49.6234 138.629 32.619 137.54 15.862 132.018Z" fill="white"/>
</g>
<defs>
<clipPath id="clip0_13_87">
<rect width="200" height="154.819" fill="white"/>
</clipPath>
</defs>
</svg>
