<svg width="152" height="152" viewBox="0 0 152 152" fill="none" xmlns="http://www.w3.org/2000/svg">
<path d="M3.27648 97.8016C12.6444 129.038 41.6177 151.815 75.9029 151.815C117.774 151.815 151.718 117.871 151.718 76C151.718 34.1285 117.774 0.18457 75.9029 0.18457C35.7255 0.18457 2.84765 31.4418 0.250977 70.963C5.16476 79.2008 7.07199 84.297 3.27175 97.8016H3.27648Z" fill="url(#paint0_linear_13_114)"/>
<path d="M71.996 57.0105L72.0031 57.3848L53.4521 84.3348C50.4479 84.1974 47.4342 84.7258 44.5722 85.9033C43.3263 86.4096 42.1368 87.0448 41.0231 87.7986L0.284149 71.0079C0.284149 71.0079 -0.658804 86.5169 3.26938 98.074L32.0697 109.958C33.4913 116.421 37.9454 122.089 44.4893 124.813C49.6375 126.952 55.4242 126.961 60.5786 124.836C65.7329 122.712 69.8334 118.629 71.9794 113.483C73.1243 110.743 73.6766 107.791 73.6 104.822L100.119 85.8559L100.77 85.8677C116.656 85.8677 129.568 72.9175 129.568 57.0105C129.568 41.1035 116.68 28.2006 100.77 28.1675C84.8917 28.1675 71.9723 41.1035 71.9723 57.0105H71.996ZM67.5419 111.621C64.097 119.914 54.5917 123.816 46.3301 120.373C42.664 118.832 39.6924 115.997 37.981 112.408L47.356 116.293C48.8043 116.896 50.3571 117.208 51.9259 117.21C53.4946 117.213 55.0484 116.906 56.4986 116.308C57.9487 115.71 59.2668 114.832 60.3775 113.724C61.4882 112.616 62.3697 111.3 62.9716 109.851C64.1906 106.924 64.1978 103.633 62.9917 100.701C61.7856 97.7683 59.4648 95.4346 56.5392 94.2122L46.8253 90.1963C50.564 88.7748 54.8144 88.7274 58.7899 90.3787C62.8176 92.0443 65.8976 95.1812 67.5466 99.1923C69.1956 103.203 69.1861 107.627 67.5229 111.621M100.796 76.2368C95.706 76.223 90.8286 74.1923 87.2325 70.5896C83.6364 66.9868 81.6147 62.1056 81.6104 57.0152C81.616 51.9257 83.6382 47.0457 87.2342 43.444C90.8301 39.8422 95.7068 37.8122 100.796 37.7984C105.887 37.8109 110.765 39.8404 114.362 43.4423C117.959 47.0442 119.982 51.9249 119.987 57.0152C119.983 62.1064 117.96 66.9883 114.363 70.5912C110.766 74.1941 105.888 76.2243 100.796 76.2368ZM86.4199 56.9844C86.4167 53.1598 87.9323 49.4903 90.6334 46.7826C93.3345 44.0748 97.0002 42.5503 100.825 42.544C108.774 42.544 115.239 49.012 115.239 56.9844C115.241 60.8099 113.724 64.4796 111.021 67.1866C108.318 69.8936 104.65 71.4164 100.825 71.4202C97.0006 71.4145 93.335 69.8909 90.6335 67.1841C87.932 64.4773 86.418 60.8087 86.4199 56.9844Z" fill="black"/>
<defs>
<linearGradient id="paint0_linear_13_114" x1="7573.62" y1="0.18457" x2="7573.62" y2="15163.3" gradientUnits="userSpaceOnUse">
<stop stop-color="white"/>
<stop offset="0.212" stop-color="#051839"/>
<stop offset="0.407" stop-color="#0A1B48"/>
<stop offset="0.581" stop-color="#132E62"/>
<stop offset="0.738" stop-color="#144B7E"/>
<stop offset="0.873" stop-color="#136497"/>
<stop offset="1" stop-color="#1387B8"/>
</linearGradient>
</defs>
</svg>
