<svg width="166" height="166" viewBox="0 0 166 166" fill="none" xmlns="http://www.w3.org/2000/svg">
<g clip-path="url(#clip0_14_507)">
<path d="M166 166H0V0H166V166Z" fill="black"/>
<path d="M0.0150757 33.9587L2.68935 31.9433L0.0150757 28.3955V33.9587Z" fill="#515054"/>
<mask id="mask0_14_507" style="mask-type:luminance" maskUnits="userSpaceOnUse" x="0" y="0" width="166" height="166">
<path d="M0.0144653 166H165.99V0.0243988H0.0144653V166Z" fill="white"/>
</mask>
<g mask="url(#mask0_14_507)">
<path d="M7.05585 15.7081C8.27098 14.7907 8.64675 14.166 7.44625 12.5702C6.42144 11.2136 5.86023 11.1697 4.44014 12.2335L7.05585 15.7081ZM9.6374 26.7126L-1.15729 12.3897L3.09324 9.18348C6.15304 6.8801 8.52962 6.71417 11.0429 10.0424C13.5366 13.3559 13.1852 15.2787 9.72524 17.8846L9.07131 18.3775L13.2779 23.9603L9.6374 26.7126Z" fill="#515054"/>
<path d="M19.6646 19.1514L8.86987 4.83328L17.0586 -1.33999L19.2839 1.61244L14.8772 4.93576L16.7072 7.37091L20.3526 4.62344L22.6707 7.69299L19.0253 10.4453L21.1286 13.2367L25.7646 9.74262L28.0778 12.8122L19.6646 19.1514Z" fill="#515054"/>
<path d="M30.1499 5.18409C30.794 6.04298 31.4577 6.07714 32.0433 5.63794C32.6289 5.19873 32.7753 4.54969 32.1312 3.69079L31.0624 2.27558L30.1157 2.98807L28.1051 0.313796L32.829 -3.24376L38.8266 4.71561L36.8892 6.16986L35.7766 5.82338C35.5033 7.09219 34.8884 8.05844 33.766 8.90757C30.0083 11.7331 27.9636 10.5229 23.7131 4.87665C19.6382 -0.530454 19.443 -3.50729 23.0835 -6.25476C25.1088 -7.77734 27.5 -8.39222 29.5057 -7.08925C30.1303 -6.6842 30.7403 -6.01564 31.6139 -4.85906L27.8318 -2.01399L27.1974 -2.84848C26.5533 -3.70737 25.8944 -3.73665 25.3088 -3.29745C24.7232 -2.85824 24.5719 -2.21407 25.221 -1.36006L30.1499 5.18409Z" fill="#515054"/>
<path d="M41.0236 3.05737L30.2289 -11.2656L34.0109 -14.1107L44.8007 0.2123L41.0236 3.05737Z" fill="#515054"/>
<path d="M0.584534 50.9308C1.79967 50.0133 2.17543 49.3887 0.974938 47.7929C-0.0498734 46.4362 -0.61108 46.3923 -2.03118 47.4562L0.584534 50.9308ZM3.16608 61.9353L-7.6286 47.6123L-3.37807 44.4061C-0.318277 42.0979 2.05831 41.9368 4.57154 45.265C7.06525 48.5786 6.71389 50.5013 3.24905 53.1073L2.6 53.6002L6.80661 59.1878L3.16608 61.9353Z" fill="#515054"/>
</g>
<path d="M13.1932 54.3735L2.39856 40.0554L10.5873 33.8822L12.8126 36.8346L8.40591 40.1579L10.2408 42.5931L13.8862 39.8456L16.1994 42.9152L12.554 45.6675L14.6573 48.4589L19.2884 44.9648L21.6016 48.0343L13.1932 54.3735Z" fill="#515054"/>
<mask id="mask1_14_507" style="mask-type:luminance" maskUnits="userSpaceOnUse" x="0" y="0" width="166" height="166">
<path d="M0.0144653 166H165.99V0.0243988H0.0144653V166Z" fill="white"/>
</mask>
<g mask="url(#mask1_14_507)">
<path d="M23.6786 40.407C24.3276 41.261 24.9865 41.3 25.5721 40.8608C26.1577 40.4216 26.3041 39.7726 25.6599 38.9137L24.5912 37.4985L23.6444 38.211L21.6339 35.5367L26.3578 31.9791L32.3553 39.9385L30.418 41.3928L29.3053 41.0463C29.032 42.3151 28.4171 43.2813 27.2947 44.1305C23.5371 46.956 21.4923 45.7458 17.2418 40.0995C13.167 34.6924 12.9718 31.7156 16.6123 28.9681C18.6375 27.4456 21.0287 26.8307 23.0344 28.1337C23.6591 28.5387 24.2691 29.2073 25.1426 30.3638L21.3606 33.2089L20.7262 32.3744C20.082 31.5155 19.4232 31.4814 18.8376 31.9206C18.2569 32.3647 18.1007 33.0088 18.7497 33.8628L23.6786 40.407Z" fill="#515054"/>
<path d="M34.5527 38.2803L23.7581 23.9573L27.5401 21.1074L38.3299 35.4352L34.5527 38.2803Z" fill="#515054"/>
<path d="M42.697 19.1969C43.9121 18.2843 44.2879 17.6548 43.0825 16.059C42.0626 14.7024 41.5013 14.6584 40.0813 15.7223L42.697 19.1969ZM45.2736 30.2014L34.4838 15.8785L38.7344 12.6723C41.7941 10.3689 44.1707 10.2029 46.684 13.536C49.1777 16.8447 48.8263 18.7674 45.3615 21.3783L44.7124 21.8663L48.919 27.4491L45.2736 30.2014Z" fill="#515054"/>
<path d="M55.3027 22.6431L44.5129 8.3201L52.6967 2.15171L54.922 5.10414L50.5153 8.42746L52.3502 10.8577L55.9957 8.11514L58.3088 11.1847L54.6634 13.9322L56.7667 16.7236L61.4028 13.2294L63.7159 16.3039L55.3027 22.6431Z" fill="#515054"/>
<path d="M65.7909 8.67196C66.44 9.53085 67.0988 9.56501 67.6795 9.1258C68.27 8.6866 68.4164 8.03755 67.7722 7.17866L66.7035 5.76345L65.7568 6.47593L63.7462 3.80654L68.4701 0.244102L74.4628 8.20347L72.5303 9.66261L71.4176 9.31125C71.1444 10.5801 70.5295 11.5463 69.4022 12.3954C65.6494 15.2259 63.6047 14.0107 59.3541 8.3694C55.2793 2.95741 55.0792 -0.0194206 58.7246 -2.76201C60.7498 -4.28947 63.1411 -4.90436 65.1468 -3.60138C65.7714 -3.19634 66.3765 -2.52777 67.2501 -1.3712L63.4729 1.47876L62.8385 0.639387C62.1943 -0.219502 61.5355 -0.248783 60.9499 0.190422C60.3643 0.629627 60.213 1.2738 60.8621 2.1278L65.7909 8.67196Z" fill="#515054"/>
<path d="M76.6651 6.5459L65.8704 -7.77707L69.6525 -10.6221L80.4423 3.70083L76.6651 6.5459Z" fill="#515054"/>
<path d="M-5.88696 86.1522C-4.67183 85.2348 -4.29606 84.6101 -5.49656 83.0143C-6.52137 81.6528 -7.08258 81.6138 -8.49779 82.6776L-5.88696 86.1522ZM-3.30541 97.1567L-14.1001 82.8338L-9.84957 79.6276C-6.78977 77.3193 -4.41319 77.1583 -1.89996 80.4865C0.593752 83.8 0.242389 85.7228 -3.22245 88.3287L-3.8715 88.8216L0.33999 94.4044L-3.30541 97.1567Z" fill="#515054"/>
<path d="M6.72169 89.5955L-4.073 75.2774L4.11574 69.1041L6.34104 72.0565L1.93435 75.3799L3.76925 77.815L7.41465 75.0627L9.7278 78.1371L6.0824 80.8894L8.1857 83.676L12.8218 80.1818L15.1349 83.2563L6.72169 89.5955Z" fill="#515054"/>
<path d="M17.2071 75.6278C17.8562 76.4819 18.515 76.5209 19.0957 76.0768C19.6862 75.6376 19.8326 74.9934 19.1884 74.1346L18.1197 72.7193L17.1729 73.4318L15.1624 70.7576L19.8863 67.2L25.8838 75.1594L23.9465 76.6136L22.8387 76.2623C22.5605 77.536 21.9456 78.5022 20.8232 79.3465C17.0656 82.1769 15.0208 80.9666 10.7703 75.3204C6.69546 69.9133 6.50026 66.9365 10.1408 64.189C12.166 62.6664 14.5572 62.0515 16.5629 63.3545C17.1876 63.7596 17.7976 64.4281 18.6711 65.5847L14.8891 68.4298L14.2547 67.5953C13.6105 66.7364 12.9517 66.7022 12.3661 67.1414C11.7805 67.5855 11.6292 68.2248 12.2782 69.0837L17.2071 75.6278Z" fill="#515054"/>
<path d="M28.0847 73.5017L17.29 59.1787L21.0671 56.3337L31.8618 70.6566L28.0847 73.5017Z" fill="#515054"/>
<path d="M36.2254 54.4198C37.4405 53.5023 37.8163 52.8777 36.6158 51.2819C35.591 49.9253 35.0298 49.8813 33.6146 50.9452L36.2254 54.4198ZM38.807 65.4243L28.0123 51.1013L32.2628 47.8952C35.3226 45.5869 37.6992 45.4258 40.2124 48.754C42.7061 52.0676 42.3548 53.9903 38.8948 56.6012L38.2409 57.0892L42.4524 62.672L38.807 65.4243Z" fill="#515054"/>
<path d="M48.8345 57.863L38.0399 43.5401L46.2335 37.3717L48.4539 40.3241L44.0472 43.6474L45.8821 46.0826L49.5275 43.3302L51.8407 46.4047L48.1953 49.157L50.2986 51.9435L54.9346 48.4494L57.2478 51.5238L48.8345 57.863Z" fill="#515054"/>
<path d="M59.3195 43.8957C59.9685 44.7497 60.6273 44.7887 61.2129 44.3446C61.7985 43.9054 61.9498 43.2613 61.3008 42.4024L60.232 40.9872L59.2853 41.6996L57.2747 39.0254L61.9986 35.4678L67.9962 43.4272L66.0637 44.8814L64.9511 44.5301C64.6729 45.8038 64.058 46.77 62.9356 47.6143C59.1779 50.4447 57.1332 49.2345 52.8827 43.5882C48.8078 38.1811 48.6126 35.2043 52.2531 32.4568C54.2784 30.9342 56.6696 30.3194 58.6753 31.6223C59.2999 32.0274 59.91 32.6959 60.7835 33.8525L57.0014 36.6976L56.3719 35.8631C55.7229 35.0042 55.0641 34.97 54.4785 35.4093C53.8977 35.8533 53.7416 36.4926 54.3906 37.3515L59.3195 43.8957Z" fill="#515054"/>
<path d="M70.1936 41.7681L59.3989 27.4451L63.181 24.5951L73.9757 38.923L70.1936 41.7681Z" fill="#515054"/>
<path d="M78.3345 22.6847C79.5546 21.7721 79.9254 21.1426 78.7249 19.5468C77.7001 18.1902 77.1438 18.1462 75.7237 19.2101L78.3345 22.6847ZM80.9161 33.6892L70.1263 19.3662L74.3768 16.16C77.4366 13.8567 79.8132 13.6907 82.3215 17.0238C84.8201 20.3325 84.4688 22.2552 80.999 24.8612L80.35 25.3541L84.5615 30.9369L80.9161 33.6892Z" fill="#515054"/>
<path d="M90.9466 26.1318L80.1519 11.8089L88.3407 5.64048L90.566 8.59291L86.1544 11.9162L87.9893 14.3465L91.6347 11.599L93.9478 14.6735L90.3024 17.4209L92.4106 20.2074L97.0418 16.7182L99.3549 19.7926L90.9466 26.1318Z" fill="#515054"/>
<path d="M101.432 12.1608C102.081 13.0197 102.735 13.0539 103.321 12.6147C103.911 12.1754 104.058 11.5264 103.409 10.6675L102.34 9.2523L101.398 9.96478L99.3828 7.29051L104.112 3.73295L110.109 11.6923L108.172 13.1515L107.059 12.7952C106.781 14.0689 106.171 15.0352 105.044 15.8794C101.291 18.7098 99.2461 17.4996 94.9956 11.8534C90.9208 6.44626 90.7207 3.46943 94.3661 0.721956C96.3864 -0.800621 98.7777 -1.41551 100.783 -0.112534C101.413 0.292511 102.018 0.961079 102.892 2.11765L99.1095 4.96761L98.48 4.12824C97.8358 3.26935 97.1721 3.24007 96.5865 3.67927C96.0058 4.11848 95.8545 4.76264 96.5036 5.61665L101.432 12.1608Z" fill="#515054"/>
<path d="M112.306 10.0347L101.511 -4.2883L105.289 -7.13337L116.088 7.18959L112.306 10.0347Z" fill="#515054"/>
<path d="M120.451 -9.04945C121.661 -9.96202 122.042 -10.5915 120.841 -12.1873C119.817 -13.544 119.25 -13.5879 117.84 -12.524L120.451 -9.04945ZM123.033 1.95508L112.233 -12.3679L116.488 -15.5741C119.548 -17.8775 121.925 -18.0434 124.438 -14.7103C126.927 -11.4016 126.58 -9.47889 123.115 -6.87294L122.462 -6.38006L126.678 -0.792394L123.033 1.95508Z" fill="#515054"/>
<path d="M0.250681 124.818L-10.5391 110.495L-2.35039 104.327L-0.129964 107.279L-4.53665 110.603L-2.70175 113.038L0.943648 110.29L3.25679 113.36L-0.388607 116.112L1.7147 118.904L6.35075 115.41L8.6639 118.479L0.250681 124.818Z" fill="#515054"/>
<path d="M10.7389 110.851C11.3831 111.705 12.0419 111.744 12.6275 111.305C13.2131 110.866 13.3644 110.217 12.7153 109.358L11.6515 107.943L10.7047 108.655L8.68927 105.981L13.418 102.423L19.4107 110.383L17.4782 111.837L16.3656 111.49C16.0874 112.759 15.4774 113.725 14.3501 114.575C10.5974 117.4 8.55262 116.19 4.3021 110.544C0.222368 105.137 0.0271666 102.16 3.67257 99.4122C5.69291 97.8897 8.08902 97.2748 10.0947 98.5777C10.7194 98.9828 11.3245 99.6514 12.198 100.808L8.41598 103.653L7.78646 102.819C7.14229 101.96 6.48348 101.925 5.89299 102.365C5.31227 102.809 5.16099 103.453 5.80515 104.307L10.7389 110.851Z" fill="#515054"/>
<path d="M21.6103 108.723L10.8205 94.4004L14.6025 91.5553L25.3923 105.878L21.6103 108.723Z" fill="#515054"/>
<path d="M29.7568 89.6405C30.972 88.723 31.3477 88.0984 30.1424 86.5026C29.1224 85.146 28.5563 85.102 27.1411 86.1659L29.7568 89.6405ZM32.3335 100.645L21.5437 86.3221L25.7942 83.1159C28.854 80.8076 31.2306 80.6465 33.7438 83.9747C36.2376 87.2883 35.8862 89.211 32.4213 91.8219L31.7723 92.3099L35.9789 97.8927L32.3335 100.645Z" fill="#515054"/>
<path d="M42.3626 93.0837L31.5728 78.7608L39.7567 72.5924L41.982 75.5448L37.5753 78.8681L39.4102 81.3033L43.0556 78.5558L45.3687 81.6254L41.7233 84.3777L43.8266 87.1691L48.4627 83.675L50.7758 86.7445L42.3626 93.0837Z" fill="#515054"/>
<path d="M52.8509 79.1172C53.4951 79.9712 54.1587 80.0102 54.7395 79.571C55.33 79.1318 55.4764 78.4828 54.8273 77.6239L53.7635 76.2087L52.8167 76.9212L50.8013 74.2469L55.53 70.6893L61.5227 78.6487L59.5902 80.103L58.4776 79.7565C58.1994 81.0253 57.5894 81.9916 56.4621 82.8407C52.7094 85.6662 50.6646 84.456 46.4141 78.8098C42.3344 73.4027 42.1392 70.4258 45.7846 67.6783C47.8098 66.1558 50.201 65.5409 52.2067 66.8439C52.8314 67.2489 53.4365 67.9175 54.31 69.074L50.528 71.9191L49.8985 71.0846C49.2543 70.2257 48.5955 70.1916 48.0099 70.6308C47.4243 71.0749 47.273 71.719 47.922 72.573L52.8509 79.1172Z" fill="#515054"/>
<path d="M63.7228 76.99L52.933 62.667L56.7101 59.822L67.5048 74.1449L63.7228 76.99Z" fill="#515054"/>
<path d="M71.8699 57.9086C73.0802 56.996 73.4608 56.3665 72.2555 54.7707C71.2355 53.414 70.6694 53.3701 69.2542 54.434L71.8699 57.9086ZM74.4466 68.9131L63.6519 54.5901L67.9073 51.3839C70.9671 49.0805 73.3437 48.9146 75.8521 52.2477C78.3458 55.5564 77.9993 57.4791 74.5344 60.0899L73.8854 60.5779L78.0871 66.1607L74.4466 68.9131Z" fill="#515054"/>
<path d="M84.4756 61.3547L73.6809 47.0318L81.8696 40.8585L84.0949 43.8158L79.6834 47.1391L81.5183 49.5694L85.1637 46.8268L87.4768 49.8964L83.8314 52.6438L85.9347 55.4352L90.5708 51.9411L92.8839 55.0155L84.4756 61.3547Z" fill="#515054"/>
<path d="M94.9604 47.3841C95.6095 48.243 96.2683 48.2772 96.8539 47.838C97.4395 47.3988 97.5859 46.7497 96.9369 45.8908L95.873 44.4756L94.9263 45.1881L92.9108 42.5187L97.6396 38.9563L103.637 46.9156L101.7 48.3748L100.587 48.0234C100.309 49.2922 99.699 50.2585 98.5717 51.1076C94.8189 53.938 92.7742 52.7229 88.5236 47.0816C84.4488 41.6696 84.2487 38.6927 87.8941 35.9501C89.9145 34.4227 92.3106 33.8078 94.3163 35.1108C94.9409 35.5158 95.5509 36.1844 96.4196 37.341L92.6375 40.1909L92.008 39.3515C91.3638 38.4927 90.705 38.4634 90.1194 38.9026C89.5338 39.3418 89.3825 39.986 90.0316 40.84L94.9604 47.3841Z" fill="#515054"/>
<path d="M105.835 45.2573L95.0448 30.9344L98.8171 28.0893L109.617 42.4123L105.835 45.2573Z" fill="#515054"/>
<path d="M113.98 26.1735C115.19 25.2609 115.571 24.6314 114.37 23.0356C113.345 21.6789 112.779 21.635 111.364 22.6989L113.98 26.1735ZM116.561 37.178L105.762 22.855L110.017 19.6488C113.077 17.3454 115.458 17.1795 117.967 20.5126C120.465 23.8213 120.109 25.744 116.644 28.3548L115.995 28.8428L120.207 34.4256L116.561 37.178Z" fill="#515054"/>
<path d="M126.585 29.6201L115.795 15.2972L123.984 9.12876L126.209 12.0812L121.797 15.4045L123.632 17.8348L127.278 15.0922L129.596 18.1617L125.95 20.9092L128.049 23.7006L132.685 20.2065L135.003 23.2809L126.585 29.6201Z" fill="#515054"/>
<path d="M137.076 15.65C137.72 16.5089 138.379 16.543 138.964 16.1038C139.545 15.6646 139.701 15.0156 139.052 14.1567L137.983 12.7415L137.037 13.454L135.026 10.7846L139.745 7.22213L145.748 15.1815L143.815 16.6406L142.702 16.2893C142.424 17.5581 141.809 18.5243 140.687 19.3735C136.934 22.2039 134.889 20.9888 130.639 15.3474C126.559 9.93544 126.364 6.95861 130.009 4.21601C132.03 2.68856 134.426 2.07367 136.427 3.37664C137.056 3.78169 137.661 4.45026 138.535 5.60683L134.753 8.45678L134.123 7.61741C133.479 6.75852 132.815 6.72924 132.23 7.16845C131.649 7.60765 131.498 8.25182 132.142 9.10583L137.076 15.65Z" fill="#515054"/>
<path d="M147.943 13.5222L137.153 -0.80075L140.935 -3.64582L151.725 10.6771L147.943 13.5222Z" fill="#515054"/>
<path d="M156.088 -5.56068C157.308 -6.47325 157.684 -7.10278 156.479 -8.69368C155.459 -10.0552 154.898 -10.0991 153.478 -9.0304L156.088 -5.56068ZM158.67 5.44385L147.88 -8.87912L152.126 -12.0853C155.186 -14.3838 157.567 -14.5546 160.075 -11.2215C162.574 -7.91287 162.223 -5.99012 158.753 -3.37929L158.104 -2.88641L162.315 2.69638L158.67 5.44385Z" fill="#515054"/>
<path d="M-6.21728 160.041L-17.012 145.718L-8.82323 139.549L-6.59792 142.502L-11.0095 145.825L-9.17459 148.26L-5.52919 145.513L-3.21604 148.582L-6.86145 151.33L-4.75326 154.121L-0.122087 150.632L2.19106 153.702L-6.21728 160.041Z" fill="#515054"/>
<path d="M4.26752 146.074C4.91168 146.928 5.57049 146.967 6.1561 146.523C6.7417 146.084 6.89299 145.439 6.24394 144.581L5.18009 143.165L4.23336 143.878L2.21789 141.204L6.94179 137.646L12.9394 145.605L11.0069 147.06L9.89422 146.713C9.61606 147.982 9.00605 148.948 7.87876 149.792C4.12599 152.623 2.08125 151.413 -2.16928 145.766C-6.24901 140.359 -6.44421 137.383 -2.79881 134.635C-0.778462 133.112 1.61764 132.498 3.62335 133.801C4.248 134.206 4.85312 134.874 5.72665 136.031L1.94461 138.876L1.31508 138.041C0.670914 137.182 0.0121064 137.148 -0.57838 137.587C-1.15911 138.032 -1.31039 138.676 -0.661341 139.53L4.26752 146.074Z" fill="#515054"/>
<path d="M15.1417 143.947L4.34705 129.624L8.12909 126.774L18.9238 141.102L15.1417 143.947Z" fill="#515054"/>
<path d="M23.2861 124.864C24.5012 123.946 24.877 123.322 23.6716 121.726C22.6517 120.369 22.0856 120.325 20.6704 121.389L23.2861 124.864ZM25.8627 135.868L15.0681 121.545L19.3235 118.339C22.3833 116.031 24.7598 115.87 27.2682 119.198C29.7668 122.512 29.4154 124.434 25.9506 127.04L25.3015 127.533L29.5081 133.116L25.8627 135.868Z" fill="#515054"/>
<path d="M35.894 128.307L25.0994 113.984L33.2881 107.816L35.5134 110.768L31.1018 114.092L32.9367 116.527L36.5821 113.779L38.8953 116.849L35.2548 119.596L37.3581 122.393L41.9892 118.898L44.3024 121.968L35.894 128.307Z" fill="#515054"/>
<path d="M46.38 114.34C47.0242 115.194 47.683 115.233 48.2686 114.789C48.8542 114.35 49.0055 113.705 48.3564 112.846L47.2926 111.431L46.3458 112.139L44.3304 109.469L49.0592 105.912L55.0567 113.871L53.1194 115.326L52.0067 114.979C51.7285 116.248 51.1185 117.214 49.9912 118.058C46.2385 120.889 44.1937 119.679 39.9432 114.032C35.8635 108.625 35.6683 105.648 39.3137 102.901C41.3389 101.378 43.7301 100.763 45.7358 102.066C46.3605 102.471 46.9656 103.14 47.8391 104.297L44.0571 107.142L43.4324 106.307C42.7834 105.448 42.1246 105.414 41.5341 105.853C40.9534 106.297 40.8021 106.942 41.4511 107.796L46.38 114.34Z" fill="#515054"/>
<path d="M57.2542 112.213L46.4595 97.8897L50.2416 95.0446L61.0363 109.368L57.2542 112.213Z" fill="#515054"/>
<path d="M65.3986 93.1293C66.6137 92.2118 66.9895 91.5872 65.7841 89.9914C64.7642 88.6347 64.2029 88.5908 62.7828 89.6547L65.3986 93.1293ZM67.9801 104.134L57.1854 89.8108L61.436 86.6046C64.4957 84.2964 66.8723 84.1353 69.3807 87.4635C71.8793 90.7771 71.5279 92.6998 68.0631 95.3058L67.414 95.7987L71.6206 101.381L67.9801 104.134Z" fill="#515054"/>
<path d="M78.0043 96.5725L67.2145 82.2495L75.3983 76.0812L77.6236 79.0336L73.2169 82.3569L75.0518 84.7921L78.6924 82.0446L81.0055 85.1141L77.365 87.8616L79.4683 90.6579L84.0995 87.1638L86.4224 90.2333L78.0043 96.5725Z" fill="#515054"/>
<path d="M88.4891 82.6054C89.1381 83.4594 89.7969 83.4984 90.3825 83.0544C90.9682 82.6151 91.1146 81.971 90.4753 81.1121L89.4017 79.6969L88.4549 80.4094L86.4443 77.7351L91.1682 74.1775L97.1658 82.1369L95.2333 83.5912L94.1158 83.2447C93.8376 84.5135 93.2276 85.4797 92.1003 86.324C88.3476 89.1544 86.3028 87.9442 82.0523 82.2979C77.9774 76.8908 77.7822 73.914 81.4228 71.1665C83.4529 69.644 85.8441 69.0291 87.8449 70.332C88.4696 70.7371 89.0796 71.4057 89.9482 72.5622L86.1759 75.4073L85.5367 74.5728C84.8974 73.7139 84.2337 73.6798 83.653 74.119C83.0625 74.5631 82.9112 75.2072 83.5602 76.0612L88.4891 82.6054Z" fill="#515054"/>
<path d="M99.3637 80.4783L88.5739 66.1553L92.3462 63.3102L103.146 77.6332L99.3637 80.4783Z" fill="#515054"/>
<path d="M107.508 61.3966C108.723 60.484 109.098 59.8545 107.898 58.2587C106.873 56.9021 106.307 56.8581 104.897 57.922L107.508 61.3966ZM110.089 72.4011L99.2896 58.0782L103.545 54.872C106.605 52.5686 108.986 52.4027 111.495 55.7357C113.993 59.0444 113.637 60.9672 110.172 63.5731L109.523 64.066L113.735 69.6488L110.089 72.4011Z" fill="#515054"/>
<path d="M120.113 64.8435L109.323 50.5205L117.512 44.3521L119.737 47.3046L115.326 50.6279L117.161 53.0582L120.806 50.3156L123.124 53.3851L119.479 56.1326L121.577 58.924L126.213 55.4299L128.531 58.5043L120.113 64.8435Z" fill="#515054"/>
<path d="M130.605 50.8722C131.25 51.7311 131.908 51.7653 132.494 51.3261C133.075 50.8869 133.231 50.2378 132.582 49.3789L131.513 47.9637L130.566 48.6762L128.556 46.0019L133.275 42.4444L139.272 50.4037L137.345 51.8629L136.232 51.5115C135.954 52.7803 135.339 53.7466 134.217 54.5908C130.464 57.4213 128.419 56.211 124.169 50.5648C120.089 45.1577 119.894 42.1809 123.539 39.4334C125.559 37.9108 127.951 37.2959 129.956 38.5989C130.586 39.0039 131.191 39.6725 132.064 40.8291L128.282 43.679L127.653 42.8397C127.009 41.9808 126.345 41.9515 125.759 42.3907C125.179 42.8299 125.027 43.4741 125.672 44.3281L130.605 50.8722Z" fill="#515054"/>
<path d="M141.48 48.7456L130.685 34.4226L134.462 31.5776L145.252 45.9005L141.48 48.7456Z" fill="#515054"/>
<path d="M149.623 29.6627C150.834 28.7501 151.214 28.1206 150.004 26.5248C148.989 25.1682 148.423 25.1243 147.003 26.1881L149.623 29.6627ZM152.195 40.6672L141.405 26.3443L145.661 23.1381C148.716 20.8347 151.097 20.6688 153.606 24.0018C156.099 27.3105 155.753 29.2333 152.288 31.8392L151.634 32.3321L155.841 37.9198L152.195 40.6672Z" fill="#515054"/>
<path d="M162.229 33.1089L151.439 18.7859L159.623 12.6175L161.848 15.57L157.437 18.8933L159.272 21.3236L162.917 18.581L165.23 21.6505L161.585 24.398L163.693 27.1894L168.324 23.6953L170.637 26.7697L162.229 33.1089Z" fill="#515054"/>
<path d="M172.714 19.1379C173.363 19.9968 174.022 20.031 174.607 19.5918C175.193 19.1526 175.34 18.5035 174.69 17.6447L173.627 16.2294L172.68 16.9419L170.664 14.2677L175.393 10.7101L181.391 18.6695L179.453 20.1286L178.341 19.7772C178.063 21.0461 177.453 22.0123 176.325 22.8614C172.573 25.687 170.528 24.4767 166.277 18.8305C162.202 13.4234 162.002 10.4466 165.648 7.6991C167.668 6.17652 170.069 5.56163 172.07 6.86461C172.695 7.26965 173.305 7.93822 174.173 9.09479L170.391 11.9447L169.762 11.1054C169.117 10.2465 168.459 10.2172 167.868 10.6564C167.287 11.0956 167.136 11.7398 167.785 12.5938L172.714 19.1379Z" fill="#515054"/>
<path d="M8.67036 179.169L-2.12433 164.846L1.65771 161.997L12.4475 176.324L8.67036 179.169Z" fill="#515054"/>
<path d="M16.8146 160.087C18.0297 159.169 18.4055 158.544 17.205 156.949C16.1802 155.592 15.619 155.548 14.2037 156.612L16.8146 160.087ZM19.3912 171.091L8.60144 156.768L12.852 153.562C15.9118 151.259 18.2884 151.093 20.8016 154.421C23.2953 157.734 22.9439 159.657 19.4791 162.263L18.83 162.756L23.0366 168.339L19.3912 171.091Z" fill="#515054"/>
<path d="M29.4237 163.53L18.629 149.212L26.8178 143.038L29.0431 145.991L24.6364 149.314L26.4713 151.749L30.1167 149.002L32.4298 152.071L28.7844 154.819L30.8877 157.61L35.5189 154.121L37.8321 157.191L29.4237 163.53Z" fill="#515054"/>
<path d="M39.9085 149.562C40.5575 150.421 41.2163 150.455 41.797 150.016C42.3875 149.577 42.5339 148.928 41.8898 148.069L40.821 146.654L39.8743 147.366L37.8637 144.692L42.5876 141.134L48.5852 149.094L46.6478 150.548L45.5352 150.202C45.2619 151.47 44.647 152.437 43.5246 153.286C39.7669 156.111 37.7222 154.901 33.4717 149.255C29.3968 143.848 29.2016 140.871 32.8421 138.123C34.8674 136.601 37.2586 135.986 39.2643 137.289C39.8889 137.694 40.4989 138.363 41.3725 139.519L37.5904 142.364L36.956 141.53C36.3119 140.671 35.653 140.642 35.0674 141.081C34.4818 141.52 34.3306 142.164 34.9796 143.018L39.9085 149.562Z" fill="#515054"/>
<path d="M50.7827 147.436L39.988 133.113L43.7701 130.263L54.5648 144.59L50.7827 147.436Z" fill="#515054"/>
<path d="M58.927 128.352C60.1421 127.434 60.5179 126.81 59.3174 125.214C58.2926 123.857 57.7314 123.813 56.3162 124.877L58.927 128.352ZM61.5086 139.356L50.7139 125.033L54.9644 121.827C58.0242 119.524 60.4008 119.358 62.914 122.686C65.4077 126 65.0564 127.922 61.5915 130.528L60.9425 131.021L65.1491 136.604L61.5086 139.356Z" fill="#515054"/>
<path d="M71.5358 131.795L60.7411 117.477L68.9298 111.304L71.1551 114.256L66.7484 117.58L68.5833 120.015L72.2239 117.267L74.5419 120.337L70.8965 123.085L72.9998 125.876L77.631 122.387L79.9441 125.456L71.5358 131.795Z" fill="#515054"/>
<path d="M82.018 117.828C82.6671 118.687 83.3259 118.721 83.9115 118.281C84.4971 117.842 84.6435 117.193 84.0042 116.334L82.9306 114.919L81.9839 115.632L79.9733 112.957L84.6972 109.4L90.6948 117.359L88.7623 118.813L87.6447 118.467C87.3763 119.736 86.7566 120.702 85.6341 121.551C81.8765 124.377 79.8318 123.166 75.5812 117.52C71.5113 112.113 71.3112 109.136 74.9566 106.389C76.9818 104.866 79.373 104.251 81.3739 105.554C81.9985 105.959 82.6085 106.628 83.482 107.784L79.7049 110.63L79.0656 109.795C78.4263 108.936 77.7675 108.907 77.1819 109.346C76.5963 109.785 76.445 110.429 77.094 111.283L82.018 117.828Z" fill="#515054"/>
<path d="M92.8922 115.701L82.1024 101.378L85.8845 98.5334L96.6743 112.856L92.8922 115.701Z" fill="#515054"/>
<path d="M101.036 96.618C102.256 95.7055 102.627 95.0759 101.426 93.4802C100.402 92.1235 99.8404 92.0796 98.4252 93.1434L101.036 96.618ZM103.618 107.623L92.8278 93.2996L97.0734 90.0934C100.133 87.7949 102.515 87.6241 105.023 90.9572C107.522 94.2658 107.17 96.1886 103.701 98.7994L103.051 99.2874L107.263 104.87L103.618 107.623Z" fill="#515054"/>
<path d="M113.642 100.064L102.853 85.7461L111.041 79.5729L113.267 82.5253L108.855 85.8486L110.69 88.2789L114.335 85.5363L116.648 88.6058L113.008 91.3533L115.106 94.1447L119.742 90.6506L122.06 93.725L113.642 100.064Z" fill="#515054"/>
<path d="M124.133 86.0931C124.782 86.9569 125.436 86.9862 126.022 86.5469C126.612 86.1077 126.759 85.4587 126.11 84.5998L125.041 83.1846L124.099 83.8971L122.084 81.2277L126.813 77.6652L132.805 85.6246L130.873 87.0838L129.76 86.7324C129.482 88.0012 128.867 88.9675 127.745 89.8166C123.992 92.647 121.947 91.4319 117.697 85.7905C113.622 80.3786 113.422 77.4066 117.067 74.6591C119.087 73.1317 121.484 72.5168 123.484 73.8198C124.114 74.2248 124.719 74.8934 125.593 76.0499L121.81 78.8999L121.181 78.0605C120.537 77.2016 119.873 77.1724 119.288 77.6116C118.707 78.0508 118.555 78.6949 119.205 79.5538L124.133 86.0931Z" fill="#515054"/>
<path d="M135.008 83.9668L124.213 69.6438L127.99 66.7988L138.78 81.1217L135.008 83.9668Z" fill="#515054"/>
<path d="M143.152 64.8849C144.363 63.9723 144.743 63.3428 143.533 61.747C142.518 60.3903 141.952 60.3464 140.542 61.4103L143.152 64.8849ZM145.724 75.8845L134.934 61.5664L139.19 58.3602C142.25 56.0617 144.626 55.8909 147.139 59.224C149.628 62.5327 149.282 64.4554 145.817 67.0663L145.163 67.5543L149.37 73.1371L145.724 75.8845Z" fill="#515054"/>
<path d="M155.757 68.3303L144.967 54.0122L153.151 47.839L155.377 50.7963L150.97 54.1147L152.805 56.545L156.445 53.8024L158.758 56.8719L155.123 59.6194L157.221 62.4108L161.852 58.9216L164.166 61.9911L155.757 68.3303Z" fill="#515054"/>
<path d="M166.242 54.3609C166.891 55.2247 167.55 55.254 168.136 54.8148C168.721 54.3756 168.868 53.7265 168.228 52.8676L167.155 51.4524L166.208 52.1649L164.197 49.4955L168.921 45.9331L174.919 53.8924L172.981 55.3516L171.869 55.0002C171.6 56.269 170.981 57.2353 169.858 58.0844C166.101 60.9148 164.056 59.6997 159.805 54.0584C155.73 48.6464 155.53 45.6695 159.176 42.927C161.206 41.3995 163.597 40.7846 165.598 42.0876C166.223 42.4926 166.833 43.1612 167.701 44.3178L163.929 47.1677L163.29 46.3284C162.65 45.4695 161.987 45.4402 161.406 45.8794C160.82 46.3186 160.664 46.9628 161.313 47.8216L166.242 54.3609Z" fill="#515054"/>
<path d="M52.4527 163.575C53.6678 162.662 54.0436 162.033 52.8431 160.437C51.8183 159.08 51.2571 159.036 49.8419 160.105L52.4527 163.575ZM55.0342 174.579L44.2396 160.256L48.495 157.05C51.5499 154.747 53.9314 154.581 56.4397 157.914C58.9383 161.223 58.582 163.145 55.1221 165.756L54.4682 166.249L58.6797 171.832L55.0342 174.579Z" fill="#515054"/>
<path d="M65.0618 167.021L54.2671 152.699L62.4558 146.53L64.6811 149.483L60.2744 152.806L62.1093 155.241L65.7499 152.494L68.0679 155.563L64.4225 158.311L66.5258 161.102L71.1618 157.608L73.475 160.682L65.0618 167.021Z" fill="#515054"/>
<path d="M75.5501 153.051C76.1943 153.91 76.8531 153.944 77.4387 153.505C78.0243 153.066 78.1707 152.417 77.5266 151.558L76.4627 150.147L75.516 150.855L73.5005 148.186L78.2244 144.623L84.222 152.583L82.2895 154.042L81.1768 153.695C80.8987 154.959 80.2887 155.925 79.1565 156.775C75.4037 159.605 73.3639 158.39 69.1085 152.749C65.0336 147.337 64.8384 144.36 68.4838 141.617C70.5042 140.09 72.9003 139.475 74.906 140.778C75.5306 141.183 76.1357 141.851 77.0093 143.008L73.2272 145.858L72.5977 145.019C71.9535 144.16 71.2947 144.13 70.7042 144.57C70.1235 145.009 69.9722 145.653 70.6164 146.507L75.5501 153.051Z" fill="#515054"/>
<path d="M86.4209 150.924L75.6311 136.601L79.4034 133.751L90.203 148.079L86.4209 150.924Z" fill="#515054"/>
<path d="M94.5651 131.84C95.7753 130.928 96.156 130.298 94.9555 128.702C93.9307 127.346 93.3646 127.302 91.9542 128.37L94.5651 131.84ZM97.1466 142.845L86.3519 128.522L90.6025 125.316C93.6623 123.012 96.0437 122.846 98.5521 126.179C101.051 129.488 100.694 131.411 97.2296 134.022L96.5756 134.514L100.792 140.097L97.1466 142.845Z" fill="#515054"/>
<path d="M107.171 135.287L96.381 120.964L104.57 114.796L106.795 117.748L102.383 121.072L104.218 123.507L107.864 120.759L110.182 123.829L106.536 126.576L108.635 129.372L113.271 125.873L115.589 128.948L107.171 135.287Z" fill="#515054"/>
<path d="M117.661 121.317C118.306 122.176 118.964 122.21 119.55 121.771C120.131 121.332 120.287 120.683 119.638 119.824L118.569 118.413L117.622 119.121L115.612 116.452L120.331 112.889L126.333 120.848L124.401 122.308L123.288 121.961C123.01 123.225 122.395 124.191 121.273 125.04C117.52 127.871 115.475 126.656 111.225 121.014C107.145 115.602 106.95 112.626 110.595 109.883C112.615 108.356 115.012 107.741 117.012 109.044C117.642 109.449 118.247 110.117 119.121 111.274L115.338 114.124L114.709 113.284C114.065 112.426 113.401 112.396 112.815 112.835C112.235 113.275 112.083 113.919 112.728 114.773L117.661 121.317Z" fill="#515054"/>
<path d="M128.53 119.193L117.74 104.87L121.522 102.02L132.312 116.343L128.53 119.193Z" fill="#515054"/>
<path d="M136.681 100.106C137.896 99.1933 138.271 98.5637 137.061 96.9679C136.046 95.6113 135.48 95.5674 134.06 96.6361L136.681 100.106ZM139.257 111.11L128.463 96.7874L132.713 93.5812C135.773 91.2827 138.154 91.1119 140.663 94.445C143.156 97.7585 142.81 99.6764 139.34 102.292L138.691 102.78L142.898 108.363L139.257 111.11Z" fill="#515054"/>
<path d="M149.286 103.556L138.491 89.2329L146.68 83.0646L148.905 86.017L144.494 89.3354L146.329 91.7706L149.974 89.0231L152.287 92.0975L148.642 94.8401L150.745 97.6364L155.381 94.1423L157.694 97.2167L149.286 103.556Z" fill="#515054"/>
<path d="M159.772 89.5859C160.421 90.4448 161.075 90.4789 161.66 90.0349C162.251 89.5956 162.397 88.9515 161.748 88.0926L160.679 86.6774L159.737 87.3899L157.722 84.7205L162.451 81.158L168.448 89.1174L166.511 90.5765L165.398 90.2252C165.12 91.494 164.51 92.4602 163.383 93.3045C159.63 96.1398 157.585 94.9247 153.335 89.2784C149.26 83.8713 149.06 80.8945 152.705 78.1519C154.726 76.6245 157.122 76.0096 159.127 77.3125C159.752 77.7176 160.362 78.3862 161.231 79.5427L157.449 82.3927L156.824 81.5533C156.175 80.6944 155.511 80.6603 154.926 81.0995C154.345 81.5436 154.194 82.1828 154.843 83.0417L159.772 89.5859Z" fill="#515054"/>
<path d="M170.646 87.459L159.856 73.136L163.628 70.2861L174.428 84.609L170.646 87.459Z" fill="#515054"/>
<path d="M88.0936 167.064C89.3039 166.151 89.6845 165.521 88.484 163.926C87.4592 162.569 86.8931 162.525 85.4828 163.594L88.0936 167.064ZM90.6752 178.068L79.8756 163.745L84.131 160.539C87.1908 158.236 89.5723 158.07 92.0806 161.403C94.5792 164.711 94.2279 166.634 90.7581 169.245L90.1091 169.733L94.3206 175.321L90.6752 178.068Z" fill="#515054"/>
<path d="M100.699 170.51L89.9095 156.187L98.0982 150.019L100.324 152.971L95.912 156.295L97.7469 158.725L101.392 155.977L103.705 159.052L100.065 161.799L102.163 164.591L106.799 161.097L109.117 164.171L100.699 170.51Z" fill="#515054"/>
<path d="M111.191 156.54C111.835 157.398 112.494 157.433 113.08 156.993C113.67 156.554 113.816 155.905 113.167 155.046L112.099 153.636L111.157 154.344L109.141 151.674L113.86 148.112L119.863 156.071L117.93 157.53L116.818 157.179C116.54 158.448 115.925 159.414 114.802 160.263C111.049 163.089 109.005 161.878 104.754 156.237C100.679 150.825 100.479 147.853 104.125 145.106C106.145 143.578 108.541 142.963 110.542 144.266C111.172 144.671 111.777 145.34 112.65 146.496L108.868 149.346L108.239 148.507C107.594 147.648 106.931 147.619 106.345 148.058C105.764 148.497 105.613 149.141 106.257 149.995L111.191 156.54Z" fill="#515054"/>
<path d="M122.058 154.416L111.269 140.093L115.051 137.248L125.84 151.566L122.058 154.416Z" fill="#515054"/>
<path d="M130.209 135.329C131.424 134.417 131.8 133.787 130.59 132.192C129.575 130.835 129.009 130.791 127.589 131.86L130.209 135.329ZM132.786 146.334L121.991 132.011L126.242 128.805C129.301 126.506 131.683 126.336 134.191 129.669C136.685 132.982 136.339 134.9 132.874 137.511L132.22 137.999L136.426 143.587L132.786 146.334Z" fill="#515054"/>
<path d="M142.815 138.779L132.02 124.456L140.209 118.283L142.434 121.24L138.023 124.559L139.858 126.989L143.503 124.246L145.816 127.321L142.171 130.064L144.279 132.855L148.91 129.366L151.223 132.435L142.815 138.779Z" fill="#515054"/>
<path d="M153.3 124.805C153.949 125.669 154.607 125.698 155.193 125.259C155.779 124.82 155.925 124.176 155.276 123.312L154.212 121.902L153.265 122.614L151.25 119.94L155.979 116.377L161.976 124.337L160.039 125.796L158.926 125.445C158.648 126.713 158.038 127.68 156.911 128.529C153.158 131.359 151.113 130.144 146.863 124.503C142.788 119.091 142.588 116.114 146.233 113.371C148.254 111.844 150.65 111.229 152.655 112.532C153.28 112.937 153.89 113.606 154.759 114.762L150.977 117.612L150.347 116.773C149.703 115.914 149.039 115.885 148.454 116.324C147.873 116.763 147.722 117.407 148.371 118.266L153.3 124.805Z" fill="#515054"/>
<path d="M164.174 122.681L153.379 108.358L157.156 105.513L167.956 119.831L164.174 122.681Z" fill="#515054"/>
<path d="M172.319 103.595C173.534 102.682 173.909 102.053 172.709 100.457C171.684 99.1003 171.118 99.0564 169.708 100.125L172.319 103.595ZM174.9 114.599L164.101 100.276L168.356 97.0702C171.416 94.7717 173.797 94.6009 176.306 97.934C178.794 101.248 178.453 103.165 174.983 105.776L174.334 106.264L178.546 111.852L174.9 114.599Z" fill="#515054"/>
<path d="M126.176 168.714C127.396 167.797 127.767 167.172 126.567 165.581C125.542 164.219 124.976 164.176 123.565 165.239L126.176 168.714ZM128.758 179.719L117.968 165.396L122.214 162.189C125.273 159.886 127.655 159.72 130.163 163.048C132.662 166.362 132.31 168.285 128.841 170.895L128.192 171.383L132.403 176.971L128.758 179.719Z" fill="#515054"/>
<path d="M138.788 172.16L127.994 157.837L136.182 151.668L138.408 154.621L133.996 157.939L135.831 160.379L139.476 157.632L141.789 160.701L138.144 163.449L140.247 166.24L144.883 162.746L147.197 165.816L138.788 172.16Z" fill="#515054"/>
<path d="M149.272 158.193C149.917 159.047 150.575 159.086 151.161 158.642C151.742 158.203 151.898 157.559 151.249 156.7L150.18 155.28L149.233 155.997L147.223 153.323L151.952 149.765L157.949 157.72L156.012 159.179L154.899 158.827C154.621 160.101 154.006 161.067 152.884 161.912C149.131 164.742 147.086 163.532 142.836 157.881C138.756 152.478 138.561 149.502 142.206 146.754C144.226 145.232 146.623 144.617 148.623 145.92C149.253 146.325 149.858 146.988 150.732 148.15L146.949 150.995L146.32 150.16C145.676 149.302 145.012 149.262 144.427 149.707C143.846 150.146 143.694 150.79 144.339 151.649L149.272 158.193Z" fill="#515054"/>
<path d="M160.148 156.066L149.353 141.743L153.13 138.893L163.92 153.216L160.148 156.066Z" fill="#515054"/>
<path d="M168.292 136.979C169.507 136.062 169.883 135.437 168.673 133.846C167.658 132.485 167.092 132.441 165.681 133.505L168.292 136.979ZM170.874 147.984L160.074 133.661L164.33 130.455C167.389 128.151 169.766 127.985 172.274 131.314C174.768 134.627 174.421 136.55 170.957 139.161L170.303 139.649L174.519 145.236L170.874 147.984Z" fill="#515054"/>
</g>
<path d="M22.0813 1.83144L25.224 7.47766L2.40002 23.577V40.2521L25.1069 56.2685L4.71805 88.3353L46.4377 103.097L43.9049 142.846L80.3101 130.738L106.848 162.898H113.88L131.429 139.22L163.457 157.637V142.904L163.271 143.329L130.77 125.59L110.523 153.953L90.5826 118.504L54.9631 128.864L57.1445 89.9799L20.549 81.23L38.5808 48.3579L8.26585 31.9121L43.5194 10.5228L37.3607 1.83144H22.0813Z" fill="white"/>
<path d="M34.6299 1.83142L40.3151 9.85423L3.78302 32.0195L7.19906 33.869L35.5473 49.2412L17.1983 82.7184L54.8089 91.7025L52.5592 131.89L89.5061 121.139L110.29 158.115L131.431 128.493L163.458 145.969V137.248L162.19 140.196L130.089 122.681L110.744 149.804L91.6582 115.864L57.366 125.839L59.4645 88.2426L23.9084 79.7366L41.6132 47.4551L12.7477 31.8047L46.7275 11.1816L40.0955 1.83142H34.6299Z" fill="black"/>
<mask id="mask2_14_507" style="mask-type:luminance" maskUnits="userSpaceOnUse" x="2" y="1" width="162" height="162">
<path d="M2.40094 162.896H163.457V1.83002H2.40094V162.896Z" fill="white"/>
</mask>
<g mask="url(#mask2_14_507)">
<path d="M56.2235 158.64C56.2235 158.64 70.8978 139.974 74.0503 136.353C77.1931 132.756 78.8718 130.629 78.8718 130.629C78.8718 130.629 101.183 128.032 117.561 117.389C133.968 106.751 149.891 81.6915 150.096 76.8212C150.287 71.9411 147.339 65.5873 143.752 63.6938C140.17 61.7906 138.267 61.1708 138.267 61.1708C138.267 61.1708 141.41 57.2229 138.233 50.6494C135.075 44.0906 133.397 43.5734 129.19 42.7291L124.979 41.8995C124.979 41.8995 128.126 38.7177 123.28 32.9934C118.425 27.2837 113.149 24.9657 111.061 25.3854L108.957 25.8197C108.957 25.8197 106.434 23.2772 100.315 18.851C94.2098 14.3906 90.6132 13.3414 87.6901 15.0494C84.7279 16.7379 76.3244 23.5456 68.7603 24.424C61.1865 25.2927 49.0059 32.9348 45.6435 41.8507C42.2958 50.7666 36.8643 67.7492 36.0493 77.9192C35.2441 88.1087 33.1359 92.3398 31.0424 94.4626C28.944 96.5854 6.01257 113.275 3.92391 116.672C1.82548 120.073 3.92391 162.647 3.92391 162.647L53.1686 162.598L56.2235 158.64Z" fill="white"/>
<path d="M144.209 80.3924C142.462 81.2806 138.958 85.6629 137.221 86.9951C135.459 88.3176 125.826 98.8732 125.826 98.8732C125.826 98.8732 123.425 103.919 119.023 101.294C114.646 98.6682 113.977 97.1359 115.065 93.388C116.154 89.6645 120.97 83.95 124.689 79.3432C128.412 74.7169 133.444 70.5396 135.854 69.0072C138.265 67.4505 140.676 66.7966 140.676 66.7966C140.676 66.7966 146.361 70.0955 147.249 72.721C148.128 75.3367 145.961 79.514 144.209 80.3924ZM96.3503 64.2589C96.3503 64.2589 93.7248 69.0951 88.2542 64.9324C82.7544 60.7844 83.4083 60.5648 85.3652 57.2609C87.3465 53.9718 89.3181 52.4297 89.3181 52.4297C89.3181 52.4297 89.9818 55.2845 92.3828 57.6855C94.813 60.0914 97.663 61.6335 97.663 61.6335L96.3503 64.2589ZM121.312 40.0734C120.877 41.391 119.526 43.8506 116.666 45.4024C116.036 45.7489 115.436 45.9295 114.865 46.0759C114.499 45.6806 114.143 45.295 113.948 45.0852C113.796 44.9486 108.209 40.5663 108.209 40.5663L103.363 36.1693C104.812 34.027 106.916 31.138 108.131 30.4597C110.097 29.3373 111.034 28.4784 111.034 28.4784C111.034 28.4784 111.771 26.7118 117.266 30.8501C122.756 35.0225 121.756 38.7704 121.312 40.0734ZM98.273 30.5524C98.273 30.5524 93.8077 27.5951 89.362 26.1067C84.9065 24.6183 85.5019 23.4324 85.5019 23.4324C85.5019 23.4324 87.5759 18.3913 89.362 17.7959C91.1384 17.2054 96.1843 17.7959 99.4589 21.0656C102.719 24.3206 102.426 24.3206 101.831 26.4044C101.23 28.4784 98.273 30.5524 98.273 30.5524ZM145.268 63.9417C141.549 61.9702 139.558 61.326 139.558 61.326C139.558 61.326 142.838 57.2414 139.529 50.4533C136.23 43.6602 134.478 43.1185 130.091 42.2499L125.699 41.391C125.699 41.391 128.978 38.097 123.937 32.1726C118.867 26.2677 113.367 23.8667 111.186 24.301L108.999 24.7549C108.999 24.7549 106.364 22.1245 99.9859 17.547C93.6174 12.9208 89.8744 11.8423 86.8244 13.6088C83.7353 15.3559 74.9756 22.3978 67.0894 23.3104C59.1886 24.2083 46.4907 32.1189 42.9868 41.3471C39.4927 50.5655 33.827 68.1386 32.9778 78.6551C32.1385 89.2058 29.9425 93.5832 27.7611 95.7792C25.5699 97.9753 6.03993 111.059 3.85855 114.572C2.77517 116.319 2.39453 127.841 2.29205 139.051C18.3474 128.305 38.7168 114.494 40.293 112.659C42.9185 109.575 44.2313 106.94 44.2313 106.94C44.2313 106.94 40.2735 104.314 38.9413 99.4881C37.6334 94.6666 40.4687 91.3725 40.4687 91.3725C40.4687 91.3725 39.5903 85.2188 40.6688 79.3139C41.7522 73.3749 43.7091 63.9417 44.1337 62.629C44.5777 61.3065 49.1504 49.2235 51.1121 44.1775C53.0788 39.1315 58.115 34.9542 62.2875 32.5337C66.4453 30.0985 72.3697 29.43 78.2843 27.8781C84.2087 26.336 93.4271 30.2596 96.7358 33.5585C98.6585 35.4764 100.601 36.5256 101.923 37.1014L107.023 41.7277C107.033 41.7277 112.869 46.3296 112.869 46.3296C112.879 46.3491 112.894 46.3638 112.908 46.3784C112.85 46.3784 112.762 46.3979 112.703 46.3979C113.543 47.252 114.309 48.0816 115.012 48.8672C116.398 50.6143 117.427 52.2003 117.364 52.9421L117.642 55.836L119.023 53.0739C118.925 52.498 118.652 51.9222 118.403 51.3512C118.803 50.751 119.247 50.1458 119.794 49.5163C122.854 46.0027 124.83 44.0262 124.83 44.0262C124.83 44.0262 131.394 45.1828 134.478 49.5602C137.557 53.9328 135.967 55.1967 135.967 55.1967C135.967 55.1967 130.584 62.7998 127.949 65.0007C125.323 67.2016 117.852 75.6832 117.852 75.6832C117.852 75.6832 112.191 83.9695 107.15 82.4469C102.089 80.9243 99.2246 76.3127 101.855 72.3745C104.476 68.4168 106.886 64.6738 106.886 64.6738C106.886 64.6738 114.948 63.8441 116.7 60.3305C117.457 58.803 117.427 57.8709 117.164 57.2707C116.554 57.9539 115.758 58.5542 114.987 59.1739C112.801 60.9405 111.034 59.1837 103.797 54.1572C96.5308 49.1161 92.3535 41.025 92.3535 41.025C92.3535 41.025 91.4751 41.4593 86.0045 43.4357C80.5145 45.4317 73.2578 40.8542 73.2578 40.8542L71.3058 42.816C69.3196 44.7875 64.2834 42.8306 64.2834 42.8306C64.2834 42.8306 63.6246 45.6903 61.4481 51.3951C60.8625 52.9323 60.5062 53.801 60.2866 54.289C60.5502 54.7331 61.2919 55.9677 63.4343 59.5107C66.743 64.9812 64.5616 76.8349 64.5616 76.8349C64.5616 76.8349 69.3099 77.4302 72.3989 79.6214C72.6625 79.8068 72.8528 80.002 73.0431 80.1923C73.209 81.3294 73.3261 82.6665 73.3261 84.2184C73.3261 86.0972 73.1505 88.2639 72.6966 90.7479C71.7206 96.033 70.7397 99.4295 70.0272 101.494C69.3099 103.548 68.8902 104.153 68.8999 104.173L71.0032 105.481C71.1106 105.286 73.131 101.982 75.1318 91.2017C75.6051 88.5714 75.7906 86.2534 75.7906 84.2184C75.7906 81.3001 75.4002 79.0358 74.9707 77.3717C77.5767 74.6974 81.0171 73.5115 81.0171 73.5115C81.0171 73.5115 83.6524 73.9459 89.1522 75.4587C94.6227 76.9861 106.935 88.3762 108.492 91.6653C110.034 94.9496 106.511 95.3986 103.226 95.6182C99.9371 95.8573 95.9989 105.515 100.176 108.785C104.358 112.069 99.7272 116.812 98.8586 118.14C97.9997 119.457 95.2278 119.501 91.7337 121.707C88.2347 123.888 59.6718 125.265 59.6718 125.265C59.6718 125.265 65.357 134.971 61.8629 141.993C60.15 145.439 48.799 154.847 37.6481 163.583L52.6933 164.393L54.0158 162.192C54.0158 162.192 69.3099 142.862 72.599 139.124C75.8833 135.396 77.6304 133.195 77.6304 133.195C77.6304 133.195 100.894 130.511 117.969 119.501C135.069 108.492 151.675 82.564 151.89 77.5278C152.09 72.4818 149.011 65.8986 145.268 63.9417Z" fill="black"/>
</g>
<path d="M162.682 162.677H3.32331V3.31844H162.682V162.677ZM0 166H166V0H0V166Z" fill="black"/>
<path d="M166 166H0V139.438H166V166Z" fill="black"/>
<path d="M46.0262 143.405H49.8912L46.6265 161.301H42.4882L38.672 143.405H42.6883L44.4305 153.727H44.4793L46.0262 143.405Z" fill="white"/>
<path d="M51.1771 143.405H55.3642V161.3H51.1771V143.405Z" fill="white"/>
<mask id="mask3_14_507" style="mask-type:luminance" maskUnits="userSpaceOnUse" x="0" y="0" width="166" height="166">
<path d="M0.0144653 166H165.99V0.0243988H0.0144653V166Z" fill="white"/>
</mask>
<g mask="url(#mask3_14_507)">
<path d="M61.8615 156.417C61.8615 157.49 62.3105 157.91 62.9595 157.91C63.6037 157.91 64.0527 157.49 64.0527 156.417V148.291C64.0527 147.222 63.6037 146.798 62.9595 146.798C62.3105 146.798 61.8615 147.222 61.8615 148.291V156.417ZM57.7476 147.096C58.3479 144.202 60.2902 143.109 62.9595 143.109C65.6241 143.109 67.5712 144.202 68.1666 147.096C68.3667 148.018 68.4399 149.614 68.4399 152.356C68.4399 155.099 68.3667 156.69 68.1666 157.612C67.5712 160.506 65.6241 161.599 62.9595 161.599C60.2902 161.599 58.3479 160.506 57.7476 157.612C57.5476 156.69 57.4744 155.099 57.4744 152.356C57.4744 149.614 57.5476 148.018 57.7476 147.096Z" fill="white"/>
<path d="M70.223 161.302V143.407H74.41V157.461H79.7928V161.302H70.223Z" fill="white"/>
<path d="M81.2787 161.302V143.407H90.3507V147.096H85.4658V150.136H89.5065V153.972H85.4658V157.461H90.5996V161.302H81.2787Z" fill="white"/>
<path d="M92.3346 161.302V143.407H96.3509L99.0642 151.332H99.113V143.407H102.705V161.302H98.8153L95.9702 152.03H95.9263V161.302H92.3346Z" fill="white"/>
<path d="M108.821 156.417C108.821 157.49 109.27 157.91 109.919 157.91C110.563 157.91 111.066 157.49 111.066 156.417V153.279H115.253C115.228 155.621 115.126 157.017 114.931 157.963C114.379 160.555 112.237 161.599 109.768 161.599C105.532 161.599 104.287 159.008 104.287 152.356C104.287 145.7 105.532 143.109 109.768 143.109C112.237 143.109 114.306 144.129 114.931 146.647C115.126 147.52 115.228 148.789 115.253 150.936H111.066V148.291C111.066 147.222 110.563 146.798 109.919 146.798C109.27 146.798 108.821 147.222 108.821 148.291V156.417Z" fill="white"/>
<path d="M117.234 161.302V143.407H126.307V147.096H121.422V150.136H125.462V153.972H121.422V157.461H126.555V161.302H117.234Z" fill="white"/>
<path d="M159.36 16.1924H157.818V8.67221H157.769L155.124 16.1924H153.87L151.351 8.67221H151.308V16.1924H149.761V6.64211H152.215L154.592 13.7426H154.641L156.959 6.64211H159.36V16.1924ZM148.663 6.64211V7.87677H146.032V16.1924H144.49V7.87677H141.865V6.64211H148.663Z" fill="white"/>
</g>
</g>
<defs>
<clipPath id="clip0_14_507">
<rect width="166" height="166" fill="white"/>
</clipPath>
</defs>
</svg>
