<svg width="154" height="154" viewBox="0 0 154 154" fill="none" xmlns="http://www.w3.org/2000/svg">
<g clip-path="url(#clip0_13_109)">
<path d="M69.3214 153.683C57.4589 152.548 45.4489 148.29 35.1319 141.562C26.4865 135.925 24.5342 133.607 24.5342 128.983C24.5342 119.693 34.7543 103.421 52.2402 84.8724C62.171 74.3379 76.004 61.9898 77.5 62.3242C80.4077 62.9741 103.658 85.641 112.362 96.3113C126.126 113.185 132.454 127 129.239 133.159C126.796 137.842 111.633 146.993 100.493 150.508C91.3119 153.406 79.2541 154.634 69.3214 153.683ZM12.8576 119.324C5.67347 108.308 2.04381 97.4638 0.291389 81.779C-0.287264 76.5999 -0.079905 73.6374 1.60536 63.007C3.7058 49.7578 11.2552 34.4301 20.3264 24.9971C24.19 20.9795 24.535 20.8816 29.2444 22.4672C34.9634 24.3928 41.0708 28.6085 50.5425 37.1684L56.0689 42.1628L53.0511 45.8681C39.0425 63.0683 24.2544 87.4491 18.6812 102.533C15.6514 110.733 14.4294 118.964 15.733 122.391C16.6132 124.705 15.8047 123.843 12.8576 119.324ZM138.961 121.197C139.671 117.735 138.773 111.375 136.669 104.961C132.113 91.0703 116.884 65.2289 102.9 47.6593L98.4982 42.1284L103.261 37.7577C109.479 32.0508 113.797 28.6336 118.455 25.7317C122.132 23.4417 127.385 21.4145 129.643 21.4145C131.035 21.4145 135.936 26.4981 139.893 32.0459C146.021 40.6383 150.529 51.0543 152.813 61.8973C154.289 68.9034 154.412 83.9001 153.051 90.8889C151.934 96.6243 149.576 104.064 147.275 109.11C145.551 112.89 141.264 120.233 139.385 122.622C138.419 123.851 138.418 123.848 138.961 121.197ZM70.5915 18.7915C64.1392 15.5167 54.1854 12.0014 48.6868 11.0557C46.7592 10.7241 43.4709 10.5392 41.3796 10.6448C36.8429 10.8737 37.0455 10.6366 44.3233 7.20012C50.3739 4.34307 55.4209 2.663 62.2724 1.22518C69.9797 -0.392267 84.4668 -0.411249 92.0514 1.18616C100.243 2.91149 109.89 6.49929 115.326 9.84252L116.941 10.8362L113.234 10.6491C105.869 10.2774 95.1343 13.2514 83.6094 18.857C80.1332 20.5478 77.109 21.8982 76.8889 21.8579C76.6689 21.8176 73.835 20.4377 70.5915 18.7915Z" fill="white"/>
</g>
<defs>
<clipPath id="clip0_13_109">
<rect width="154" height="154" fill="white"/>
</clipPath>
</defs>
</svg>
